<svg data-name="Слой 1" xmlns="http://www.w3.org/2000/svg" viewBox="0 0 187.5 61.78"><path d="M8.08.5h171.34A7.45 7.45 0 01187 7.79V54a7.45 7.45 0 01-7.58 7.3H8.08A7.45 7.45 0 01.5 54V7.79A7.45 7.45 0 018.08.5z" fill="none" stroke="#484852" stroke-miterlimit="10"/><path d="M44 29.5a7.82 7.82 0 013.72-6.56 8.06 8.06 0 00-6.31-3.42c-2.65-.28-5.23 1.6-6.58 1.6s-3.46-1.56-5.7-1.52A8.38 8.38 0 0022 23.91c-3 5.29-.75 13.09 2.18 17.35 1.47 2.09 3.17 4.43 5.42 4.35s3-1.4 5.66-1.4 3.39 1.4 5.67 1.35 3.83-2.1 5.25-4.22a17.38 17.38 0 002.4-4.88 7.6 7.6 0 01-4.62-7m-4.32-12.74a7.73 7.73 0 001.77-5.52 7.82 7.82 0 00-5.07 2.62 7.38 7.38 0 00-1.81 5.31 6.45 6.45 0 005.11-2.41m36.07 28.59h-3.06L71 40h-5.87l-1.59 5.28h-3l5.78-18h3.57l5.8 18zm-5.24-7.49L69 33.14c-.16-.49-.46-1.61-.9-3.38H68c-.18.76-.46 1.89-.85 3.38l-1.5 4.68zm20.08.86a7.28 7.28 0 01-1.8 5.22 5.23 5.23 0 01-4 1.7 4 4 0 01-3.7-1.84v6.8h-2.86v-14c0-1.38 0-2.79-.11-4.25h2.53l.16 2A5.12 5.12 0 0189 33.9a7.08 7.08 0 011.55 4.78zm-2.93.1a5.27 5.27 0 00-.85-3.11 3 3 0 00-2.5-1.28 3.08 3.08 0 00-1.94.7 3.31 3.31 0 00-1.13 1.85 4.24 4.24 0 00-.13.88V40a3.46 3.46 0 00.86 2.38 2.87 2.87 0 002.25 1 3 3 0 002.53-1.26 5.44 5.44 0 00.91-3.3zm17.81-.1a7.33 7.33 0 01-1.8 5.22 5.26 5.26 0 01-4 1.7A4 4 0 0196 43.76v6.8h-2.93v-14c0-1.38 0-2.79-.11-4.25h2.53l.15 2a5.11 5.11 0 018.18-.51 7 7 0 011.56 4.78zm-2.93.1a5.27 5.27 0 00-.85-3.11 3 3 0 00-2.5-1.28 3.08 3.08 0 00-1.94.7 3.36 3.36 0 00-1.13 1.85 4.24 4.24 0 00-.13.88V40a3.46 3.46 0 00.86 2.38 2.87 2.87 0 002.25 1 3 3 0 002.53-1.26 5.38 5.38 0 00.91-3.3zm19.58 1.49a4.8 4.8 0 01-1.59 3.73 7.06 7.06 0 01-4.89 1.57 8.48 8.48 0 01-4.6-1.12l.67-2.39a8.08 8.08 0 004.16 1.12 3.86 3.86 0 002.52-.73 2.39 2.39 0 00.92-2 2.5 2.5 0 00-.75-1.83 6.89 6.89 0 00-2.52-1.35c-3.18-1.18-4.75-2.89-4.75-5.14a4.54 4.54 0 011.67-3.62 6.59 6.59 0 014.41-1.41 8.67 8.67 0 014.07.85l-.73 2.33a7.13 7.13 0 00-3.45-.83 3.55 3.55 0 00-2.38.75 2.16 2.16 0 00-.72 1.62 2.19 2.19 0 00.83 1.76 9.45 9.45 0 002.62 1.42 8.74 8.74 0 013.43 2.15 4.54 4.54 0 011.1 3.12m9.51-5.75h-3.17v6.29c0 1.59.56 2.39 1.68 2.39a5.58 5.58 0 001.27-.13l.09 2.19a6.85 6.85 0 01-2.24.31 3.44 3.44 0 01-2.66-1 5.11 5.11 0 01-1-3.49v-6.57h-1.88v-2.15h1.88V30l2.82-.85v3.22h3.17v2.16m14.31 4.2a7.13 7.13 0 01-1.7 4.9 6.1 6.1 0 01-4.74 2 5.83 5.83 0 01-4.55-1.89 6.82 6.82 0 01-1.68-4.74 7.09 7.09 0 011.73-5 6.1 6.1 0 014.71-1.92 5.93 5.93 0 014.58 1.9 6.75 6.75 0 011.65 4.73zm-3 .06a5.8 5.8 0 00-.77-3 2.85 2.85 0 00-2.59-1.54 2.89 2.89 0 00-2.64 1.54 5.83 5.83 0 00-.76 3.11 5.78 5.78 0 00.76 3 2.9 2.9 0 002.62 1.55 2.93 2.93 0 002.59-1.57 5.94 5.94 0 00.82-3.09zm12.36-3.9a5.17 5.17 0 00-.91-.07A2.68 2.68 0 00152 36a4.29 4.29 0 00-.72 2.55v6.8h-2.88v-8.92c0-1.49 0-2.85-.09-4.07h2.51l.11 2.48h.07a4.36 4.36 0 011.44-2.05 3.42 3.42 0 012.07-.7 7.18 7.18 0 01.72 0v2.75m12.87 3.38a6.06 6.06 0 01-.11 1.3h-8.63a3.74 3.74 0 001.26 2.93 4.33 4.33 0 002.82.9 9.66 9.66 0 003.48-.61l.45 2a10.67 10.67 0 01-4.34.81 6.27 6.27 0 01-4.72-1.78 6.52 6.52 0 01-1.72-4.77 7.45 7.45 0 011.61-4.88 5.51 5.51 0 014.52-2.07 4.81 4.81 0 014.28 2.08 7.09 7.09 0 011.15 4.09zm-2.74-.74a3.93 3.93 0 00-.56-2.22 2.52 2.52 0 00-2.29-1.2 2.72 2.72 0 00-2.28 1.17 4.22 4.22 0 00-.85 2.24zM69.08 20.93h-1.5l-.83-2.59h-2.87l-.79 2.59h-1.46l2.84-8.82h1.75zm-2.58-3.68l-.75-2.31c-.07-.23-.21-.79-.45-1.66-.1.37-.22.92-.43 1.66l-.72 2.31zm9.68-2.69l-2.4 6.37H72.4l-2.33-6.37h1.52l1.08 3.37c.18.56.34 1.1.46 1.61.11-.47.27-1 .46-1.61l1.07-3.37h1.48m5.17 6.37l-.11-.73a2.18 2.18 0 01-1.86.88 1.84 1.84 0 01-2-1.87c0-1.57 1.36-2.39 3.72-2.39v-.12c0-.84-.45-1.25-1.32-1.25a3 3 0 00-1.67.48L77.8 15a4.14 4.14 0 012.2-.55c1.66 0 2.5.88 2.5 2.64v2.35a8.78 8.78 0 00.1 1.52h-1.28zm-.19-3.17c-1.57 0-2.36.38-2.36 1.29a.9.9 0 001 1 1.36 1.36 0 001.39-1.3zm4.52-4.24a.85.85 0 11.89-.85.83.83 0 01-.89.85zm-.68 1h1.41v6.36H85zm3.93-2.87h1.41v9.27h-1.41zm7.41 9.28l-.11-.73a2.18 2.18 0 01-1.86.88 1.84 1.84 0 01-2-1.87c0-1.57 1.36-2.39 3.72-2.39v-.12c0-.84-.45-1.25-1.32-1.25a3 3 0 00-1.67.48l-.27-.93a4 4 0 012.21-.56c1.66 0 2.5.88 2.5 2.64v2.35a8.94 8.94 0 00.07 1.57H96.3zm-.19-3.17c-1.57 0-2.36.38-2.36 1.29a.9.9 0 001 1 1.36 1.36 0 001.39-1.3zm7.11 3.32a2.18 2.18 0 01-2-1.13l-.09 1H99.9v-9.3h1.42v3.85a2.19 2.19 0 012-1.06c1.54 0 2.61 1.32 2.61 3.22s-1.1 3.42-2.71 3.42zm-.29-5.53a1.62 1.62 0 00-1.56 1.69v1.12A1.56 1.56 0 00102.9 20c1.06 0 1.69-.86 1.69-2.24s-.66-2.21-1.66-2.21zm5.19-3.9h1.41v9.27h-1.41zm9.1 6.44H113a1.82 1.82 0 002 1.91 4.88 4.88 0 001.72-.3l.22 1a5.13 5.13 0 01-2.13.39 3 3 0 01-3.17-3.21c0-1.94 1.2-3.41 3-3.41 1.62 0 2.65 1.2 2.65 3a2.43 2.43 0 01-.06.65zm-1.29-1c0-1-.5-1.68-1.4-1.68a1.68 1.68 0 00-1.53 1.67zm9.86 3.99a3 3 0 01-3.06-3.27 3.09 3.09 0 013.17-3.37 3 3 0 013.1 3.26 3.12 3.12 0 01-3.21 3.38zm.06-5.6c-1 0-1.68 1-1.68 2.28s.67 2.26 1.67 2.26 1.66-1 1.66-2.3-.65-2.24-1.65-2.24zm10.71 5.45h-1.41v-3.66c0-1.13-.44-1.68-1.29-1.68a1.46 1.46 0 00-1.41 1.55v3.78H131v-6.36h1.24l.06 1a2.29 2.29 0 012-1.12c1.33 0 2.21 1 2.21 2.69v3.81m9.3-5.31h-1.56v3.09c0 .79.28 1.18.83 1.18a2.86 2.86 0 00.63-.06v1.07a3 3 0 01-1.09.16c-1.12 0-1.78-.62-1.78-2.23v-3.21H142v-1.05h.92v-1.17l1.39-.43v1.58h1.55v1.07m7.44 5.3h-1.41V17.3c0-1.14-.44-1.71-1.29-1.71a1.38 1.38 0 00-1.41 1.5v3.83h-1.41v-9.27h1.41v3.81a2.15 2.15 0 011.91-1c1.35 0 2.18 1.05 2.18 2.71v3.79m7.24-2.87h-4.24a1.82 1.82 0 002 1.88 4.92 4.92 0 001.72-.3l.21 1a5.08 5.08 0 01-2.12.39 3 3 0 01-3.17-3.21c0-1.94 1.2-3.41 3-3.41 1.62 0 2.65 1.2 2.65 3a2.43 2.43 0 01-.05.65zm-1.29-1c0-1-.5-1.68-1.4-1.68a1.67 1.67 0 00-1.54 1.68z"/></svg>