<svg id="Слой_1" data-name="Слой 1" xmlns="http://www.w3.org/2000/svg" viewBox="0 0 187.5 61.78"><defs><style>.cls-1{fill:none;stroke:#484852;stroke-miterlimit:10;}</style></defs><title>12</title><g id="Page-1"><g id="Artboard-1"><g id="App-Store"><path id="background" class="cls-1" d="M8.08.5H179.42A7.45,7.45,0,0,1,187,7.79V54a7.45,7.45,0,0,1-7.58,7.3H8.08A7.45,7.45,0,0,1,.5,54V7.79A7.45,7.45,0,0,1,8.08.5Z"/><g id="icon"><path id="Fill-2" d="M44,29.5a7.82,7.82,0,0,1,3.72-6.56,8.06,8.06,0,0,0-6.31-3.42c-2.65-.28-5.23,1.6-6.58,1.6s-3.46-1.56-5.7-1.52A8.38,8.38,0,0,0,22,23.91C19,29.2,21.25,37,24.18,41.26c1.47,2.09,3.17,4.43,5.42,4.35s3-1.4,5.66-1.4,3.39,1.4,5.67,1.35,3.83-2.1,5.25-4.22a17.38,17.38,0,0,0,2.4-4.88,7.6,7.6,0,0,1-4.62-7"/><path id="Fill-3" d="M39.64,16.72a7.73,7.73,0,0,0,1.77-5.52,7.82,7.82,0,0,0-5.07,2.62,7.38,7.38,0,0,0-1.81,5.31,6.45,6.45,0,0,0,5.11-2.41"/></g><path id="Fill-4" d="M75.71,45.31H72.65L71,40H65.13l-1.59,5.28h-3l5.78-18h3.57l5.8,18Zm-5.24-7.49L69,33.14c-.16-.49-.46-1.61-.9-3.38H68c-.18.76-.46,1.89-.85,3.38l-1.5,4.68Z"/><path id="Fill-5" d="M90.55,38.68a7.28,7.28,0,0,1-1.8,5.22,5.23,5.23,0,0,1-4,1.7,4,4,0,0,1-3.7-1.84v6.8H78.19v-14c0-1.38,0-2.79-.11-4.25h2.53l.16,2h0A5.12,5.12,0,0,1,89,33.9a7.08,7.08,0,0,1,1.55,4.78Zm-2.93.1a5.27,5.27,0,0,0-.85-3.11,3,3,0,0,0-2.5-1.28,3.08,3.08,0,0,0-1.94.7,3.31,3.31,0,0,0-1.13,1.85,4.24,4.24,0,0,0-.13.88V40a3.46,3.46,0,0,0,.86,2.38,2.87,2.87,0,0,0,2.25,1,3,3,0,0,0,2.53-1.26,5.44,5.44,0,0,0,.91-3.3Z"/><path id="Fill-6" d="M105.43,38.68a7.33,7.33,0,0,1-1.8,5.22,5.26,5.26,0,0,1-4,1.7A4,4,0,0,1,96,43.76v6.8H93.07v-14c0-1.38,0-2.79-.11-4.25h2.53l.15,2h0a5.11,5.11,0,0,1,8.18-.51,7,7,0,0,1,1.56,4.78Zm-2.93.1a5.27,5.27,0,0,0-.85-3.11,3,3,0,0,0-2.5-1.28,3.08,3.08,0,0,0-1.94.7,3.36,3.36,0,0,0-1.13,1.85,4.24,4.24,0,0,0-.13.88V40a3.46,3.46,0,0,0,.86,2.38,2.87,2.87,0,0,0,2.25,1,3,3,0,0,0,2.53-1.26,5.38,5.38,0,0,0,.91-3.3Z"/><path id="Fill-7" d="M122.08,40.27A4.8,4.8,0,0,1,120.49,44a7.06,7.06,0,0,1-4.89,1.57A8.48,8.48,0,0,1,111,44.45l.67-2.39a8.08,8.08,0,0,0,4.16,1.12,3.86,3.86,0,0,0,2.52-.73,2.39,2.39,0,0,0,.92-2,2.5,2.5,0,0,0-.75-1.83A6.89,6.89,0,0,0,116,37.27c-3.18-1.18-4.75-2.89-4.75-5.14a4.54,4.54,0,0,1,1.67-3.62,6.59,6.59,0,0,1,4.41-1.41,8.67,8.67,0,0,1,4.07.85l-.73,2.33a7.13,7.13,0,0,0-3.45-.83,3.55,3.55,0,0,0-2.38.75,2.16,2.16,0,0,0-.72,1.62,2.19,2.19,0,0,0,.83,1.76A9.45,9.45,0,0,0,117.57,35,8.74,8.74,0,0,1,121,37.15a4.54,4.54,0,0,1,1.1,3.12"/><path id="Fill-8" d="M131.61,34.52h-3.17v6.29c0,1.59.56,2.39,1.68,2.39a5.58,5.58,0,0,0,1.27-.13l.09,2.19a6.85,6.85,0,0,1-2.24.31,3.44,3.44,0,0,1-2.66-1,5.11,5.11,0,0,1-1-3.49V34.51h-1.88V32.36h1.88V30l2.82-.85v3.22h3.17v2.16"/><path id="Fill-9" d="M145.88,38.73a7.13,7.13,0,0,1-1.7,4.9,6.1,6.1,0,0,1-4.74,2,5.83,5.83,0,0,1-4.55-1.89A6.82,6.82,0,0,1,133.21,39,7.09,7.09,0,0,1,134.94,34a6.1,6.1,0,0,1,4.71-1.92,5.93,5.93,0,0,1,4.58,1.9,6.75,6.75,0,0,1,1.65,4.73Zm-3,.06a5.8,5.8,0,0,0-.77-3,2.85,2.85,0,0,0-2.59-1.54,2.89,2.89,0,0,0-2.64,1.54,5.83,5.83,0,0,0-.76,3.11,5.78,5.78,0,0,0,.76,3,2.9,2.9,0,0,0,2.62,1.55,2.93,2.93,0,0,0,2.59-1.57A5.94,5.94,0,0,0,142.91,38.79Z"/><path id="Fill-10" d="M155.24,34.89a5.17,5.17,0,0,0-.91-.07A2.68,2.68,0,0,0,152,36a4.29,4.29,0,0,0-.72,2.55v6.8h-2.88V36.43c0-1.49,0-2.85-.09-4.07h2.51l.11,2.48H151a4.36,4.36,0,0,1,1.44-2.05,3.42,3.42,0,0,1,2.07-.7,7.18,7.18,0,0,1,.72,0v2.75"/><path id="Fill-11" d="M168.1,38.22a6.06,6.06,0,0,1-.11,1.3h-8.63a3.74,3.74,0,0,0,1.26,2.93,4.33,4.33,0,0,0,2.82.9,9.66,9.66,0,0,0,3.48-.61l.45,2a10.67,10.67,0,0,1-4.34.81,6.27,6.27,0,0,1-4.72-1.78A6.52,6.52,0,0,1,156.59,39a7.45,7.45,0,0,1,1.61-4.88,5.51,5.51,0,0,1,4.52-2.07A4.81,4.81,0,0,1,167,34.13a7.09,7.09,0,0,1,1.15,4.09Zm-2.74-.74a3.93,3.93,0,0,0-.56-2.22,2.52,2.52,0,0,0-2.29-1.2,2.72,2.72,0,0,0-2.28,1.17,4.22,4.22,0,0,0-.85,2.24Z"/><g id="Available-on-the"><path id="Fill-12" d="M69.08,20.93h-1.5l-.83-2.59H63.88l-.79,2.59H61.63l2.84-8.82h1.75ZM66.5,17.25l-.75-2.31c-.07-.23-.21-.79-.45-1.66h0c-.1.37-.22.92-.43,1.66l-.72,2.31Z"/><path id="Fill-13" d="M76.18,14.56l-2.4,6.37H72.4l-2.33-6.37h1.52l1.08,3.37c.18.56.34,1.1.46,1.61h0c.11-.47.27-1,.46-1.61l1.07-3.37h1.48"/><path id="Fill-14" d="M81.31,20.93l-.11-.73h0a2.18,2.18,0,0,1-1.86.88,1.84,1.84,0,0,1-2-1.87c0-1.57,1.36-2.39,3.72-2.39V16.7c0-.84-.45-1.25-1.32-1.25a3,3,0,0,0-1.67.48L77.8,15A4.14,4.14,0,0,1,80,14.45c1.66,0,2.5.88,2.5,2.64v2.35a8.78,8.78,0,0,0,.1,1.52l-1.28,0Zm-.19-3.17c-1.57,0-2.36.38-2.36,1.29a.9.9,0,0,0,1,1,1.36,1.36,0,0,0,1.39-1.3Z"/><path id="Fill-15" d="M85.64,13.52a.85.85,0,1,1,.89-.85.83.83,0,0,1-.89.85Zm-.68,1h1.41v6.36H85Z"/><path id="Fill-16" d="M88.89,11.65H90.3v9.27H88.89Z"/><path id="Fill-17" d="M96.3,20.93l-.11-.73h0a2.18,2.18,0,0,1-1.86.88,1.84,1.84,0,0,1-2-1.87c0-1.57,1.36-2.39,3.72-2.39V16.7c0-.84-.45-1.25-1.32-1.25a3,3,0,0,0-1.67.48L92.79,15A4,4,0,0,1,95,14.44c1.66,0,2.5.88,2.5,2.64v2.35A8.94,8.94,0,0,0,97.57,21H96.3v0Zm-.19-3.17c-1.57,0-2.36.38-2.36,1.29a.9.9,0,0,0,1,1,1.36,1.36,0,0,0,1.39-1.3Z"/><path id="Fill-18" d="M103.22,21.08a2.18,2.18,0,0,1-2-1.13h0l-.09,1H99.9c0-.51,0-1.08,0-1.71V11.65h1.42V15.5h0a2.19,2.19,0,0,1,2-1.06c1.54,0,2.61,1.32,2.61,3.22S104.83,21.08,103.22,21.08Zm-.29-5.53a1.62,1.62,0,0,0-1.56,1.69v1.12A1.56,1.56,0,0,0,102.9,20c1.06,0,1.69-.86,1.69-2.24S103.93,15.55,102.93,15.55Z"/><path id="Fill-19" d="M108.12,11.65h1.41v9.27h-1.41Z"/><path id="Fill-20" d="M117.22,18.09H113A1.82,1.82,0,0,0,115,20a4.88,4.88,0,0,0,1.72-.3l.22,1a5.13,5.13,0,0,1-2.13.39,3,3,0,0,1-3.17-3.21c0-1.94,1.2-3.41,3-3.41,1.62,0,2.65,1.2,2.65,3a2.43,2.43,0,0,1-.06.65Zm-1.29-1c0-1-.5-1.68-1.4-1.68A1.68,1.68,0,0,0,113,17.08Z"/><path id="Fill-21" d="M125.79,21.08a3,3,0,0,1-3.06-3.27,3.09,3.09,0,0,1,3.17-3.37A3,3,0,0,1,129,17.7,3.12,3.12,0,0,1,125.79,21.08Zm.06-5.6c-1,0-1.68,1-1.68,2.28s.67,2.26,1.67,2.26,1.66-1,1.66-2.3-.65-2.24-1.65-2.24Z"/><path id="Fill-22" d="M136.56,20.93h-1.41V17.27c0-1.13-.44-1.68-1.29-1.68a1.46,1.46,0,0,0-1.41,1.55v3.78H131V16.39c0-.56,0-1.17,0-1.83h1.24l.06,1h0a2.29,2.29,0,0,1,2-1.12c1.33,0,2.21,1,2.21,2.69v3.81"/><path id="Fill-23" d="M145.81,15.63h-1.56v3.09c0,.79.28,1.18.83,1.18a2.86,2.86,0,0,0,.63-.06l0,1.07a3,3,0,0,1-1.09.16c-1.12,0-1.78-.62-1.78-2.23V15.63H142V14.58h.92V13.41l1.39-.43v1.58h1.55v1.07"/><path id="Fill-24" d="M153.3,20.93h-1.41V17.3c0-1.14-.44-1.71-1.29-1.71a1.38,1.38,0,0,0-1.41,1.5v3.83h-1.41V11.65h1.41v3.81h0a2.15,2.15,0,0,1,1.91-1c1.35,0,2.18,1.05,2.18,2.71v3.79"/><path id="Fill-25" d="M160.52,18.09h-4.24a1.82,1.82,0,0,0,2,1.88,4.92,4.92,0,0,0,1.72-.3l.21,1a5.08,5.08,0,0,1-2.12.39,3,3,0,0,1-3.17-3.21c0-1.94,1.2-3.41,3-3.41,1.62,0,2.65,1.2,2.65,3A2.43,2.43,0,0,1,160.52,18.09Zm-1.29-1c0-1-.5-1.68-1.4-1.68a1.67,1.67,0,0,0-1.54,1.68Z"/></g></g></g></g></svg>