<svg id="Слой_1" data-name="Слой 1" xmlns="http://www.w3.org/2000/svg" viewBox="0 0 187.5 62.01"><defs><linearGradient id="Безымянный_градиент_5" x1="580.01" y1="-1550.82" x2="580.01" y2="-1547.38" gradientTransform="matrix(12 0 0 12 -6935.24 18622.09)" gradientUnits="userSpaceOnUse"><stop offset="0" stop-color="#277db0"/><stop offset=".29" stop-color="#4a92b4"/><stop offset=".77" stop-color="#79bcba"/><stop offset="1" stop-color="#89cebc"/></linearGradient><linearGradient id="Безымянный_градиент_2" x1="579.14" y1="-1549.97" x2="581.35" y2="-1549.97" gradientTransform="matrix(12 0 0 12 -6935.24 18622.09)" gradientUnits="userSpaceOnUse"><stop offset="0" stop-color="#52c0ac"/><stop offset="1" stop-color="#dee899"/></linearGradient><linearGradient id="Безымянный_градиент_3" x1="580.25" y1="-1549.1" x2="580.25" y2="-1547.36" gradientTransform="matrix(12 0 0 12 -6935.24 18622.09)" gradientUnits="userSpaceOnUse"><stop offset="0" stop-color="#eb423d"/><stop offset=".17" stop-color="#d94552"/><stop offset=".57" stop-color="#af487b"/><stop offset=".86" stop-color="#954b92"/><stop offset="1" stop-color="#894a9c"/></linearGradient><linearGradient id="Безымянный_градиент_4" x1="581.51" y1="-1549.56" x2="581.51" y2="-1548.64" gradientTransform="matrix(12 0 0 12 -6935.24 18622.09)" gradientUnits="userSpaceOnUse"><stop offset="0" stop-color="#f4887a"/><stop offset=".12" stop-color="#f5907a"/><stop offset=".71" stop-color="#fbb878"/><stop offset="1" stop-color="#fdc874"/></linearGradient><clipPath id="clip-path"><path d="M40.92 27.35l-8.41-4.85-16.22-9.37c-.9-.52-1.8-.2-1.8.88v38.16c0 .82.64 1.17 1.42.72l16.6-9.59 8.41-4.85L49 33.78c1-.55.86-1.3.06-1.73s-8.14-4.7-8.14-4.7z" fill="none"/></clipPath><style>.cls-8{fill:#231f20}</style></defs><path d="M187 53.26a8.25 8.25 0 01-8.25 8.25H8.74A8.25 8.25 0 01.5 53.26V8.74A8.24 8.24 0 018.74.5h170A8.24 8.24 0 01187 8.74v44.52z" stroke="#484852" stroke-miterlimit="10" fill="none"/><path d="M14.49 12.24v41.32L35.32 32.9z" fill="url(#Безымянный_градиент_5)"/><path d="M40.92 27.35l-8.41-4.85-18-10.41v.15L35.32 32.9z" fill="url(#Безымянный_градиент_2)"/><path d="M14.49 53.56v.15l18-10.41 8.41-4.85-5.6-5.55z" fill="url(#Безымянный_градиент_3)"/><path d="M40.92 27.35l-5.6 5.55 5.6 5.55 9.61-5.55z" fill="url(#Безымянный_градиент_4)"/><path class="cls-8" d="M145.64 41a5.15 5.15 0 01-2.14-.44 4 4 0 01-1.63-1.33h-.13a15.71 15.71 0 01.13 2v4.94h-1.82V28.74h1.48l.25 1.65h.09A4.3 4.3 0 01143.5 29a5 5 0 012.14-.44 4.45 4.45 0 013.69 1.64 7.22 7.22 0 011.3 4.58 7.16 7.16 0 01-1.32 4.6 4.47 4.47 0 01-3.67 1.62zm-.26-10.91a3.24 3.24 0 00-2.67 1 5.26 5.26 0 00-.84 3.24v.41a6 6 0 00.84 3.62 3.22 3.22 0 002.71 1.09 2.82 2.82 0 002.44-1.26 6 6 0 00.88-3.47 5.75 5.75 0 00-.88-3.45 2.91 2.91 0 00-2.48-1.2zm9.46 10.69H153V23.7h1.82zm10.46 0l-.36-1.71h-.09a5.09 5.09 0 01-1.79 1.53 5.56 5.56 0 01-2.23.4 4 4 0 01-2.8-.92 3.36 3.36 0 01-1-2.62q0-3.64 5.82-3.82l2-.06v-.75a3.09 3.09 0 00-.61-2.09 2.52 2.52 0 00-2-.67 7.87 7.87 0 00-3.4.92l-.56-1.39a8.32 8.32 0 011.95-.76 8.56 8.56 0 012.12-.27 4.57 4.57 0 013.19.95 4 4 0 011 3.06v8.2zm-4.11-1.28a3.7 3.7 0 002.67-.94 3.43 3.43 0 001-2.61v-1.1l-1.82.08a6.62 6.62 0 00-3.13.67 2 2 0 00-1 1.86 1.86 1.86 0 00.6 1.5 2.51 2.51 0 001.67.52zm6.52-10.74h1.95l2.63 6.85a26.61 26.61 0 011.08 3.39h.08c.1-.37.3-1 .6-1.91s1.3-3.68 3-8.33H179l-5.17 13.68A6.66 6.66 0 01172 45.3a3.78 3.78 0 01-2.51.85 7.58 7.58 0 01-1.65-.18v-1.46a6.19 6.19 0 001.35.13 2.79 2.79 0 002.68-2.11l.66-1.71-4.84-12.08zm-55.78 1.12a4.23 4.23 0 011.79 3.39c0 1.86-1.06 2.74-2.12 3.57a1.8 1.8 0 00-.7 1.23 1.37 1.37 0 00.65 1.08l.91.71c1.11.93 2.11 1.78 2.11 3.52 0 2.36-2.29 4.74-6.61 4.74-3.64 0-5.4-1.73-5.4-3.59a3.63 3.63 0 011.93-3.07 10.8 10.8 0 014.8-1.15 2.64 2.64 0 01-.75-1.71 2.31 2.31 0 01.25-1h-.8a4 4 0 01-4.18-3.94 4.52 4.52 0 011.61-3.37 6.85 6.85 0 014.5-1.38h5.18l-1.61.9zM110.15 41a3.45 3.45 0 00-.58 0 9.79 9.79 0 00-2.64.41 2.82 2.82 0 00-2.16 2.59c0 1.79 1.73 3.07 4.42 3.07 2.41 0 3.7-1.16 3.7-2.71 0-1.29-.83-2-2.74-3.32zm.73-4.78a2.56 2.56 0 00.62-1.83c0-1.81-1.08-4.63-3.16-4.63a2.35 2.35 0 00-1.76.83 2.9 2.9 0 00-.56 1.86c0 1.69 1 4.48 3.15 4.48a2.6 2.6 0 001.71-.71zm-14.77 4.4A5.93 5.93 0 0190 34.69a6.21 6.21 0 016.5-6.09 5.86 5.86 0 016 5.92 6.13 6.13 0 01-6.37 6.1zm3.14-2a4.53 4.53 0 00.75-2.82c0-2.21-1-6.43-4.16-6.43a3.49 3.49 0 00-2.26.86 3.8 3.8 0 00-1.16 3.06c0 2.48 1.23 6.57 4.27 6.57a3.19 3.19 0 002.56-1.28zm-16.74 2a5.93 5.93 0 01-6.12-5.93 6.22 6.22 0 016.5-6.09 5.86 5.86 0 016 5.92 6.13 6.13 0 01-6.38 6.1zm3.14-2a4.53 4.53 0 00.75-2.78c0-2.21-1.05-6.43-4.16-6.43a3.49 3.49 0 00-2.26.86 3.8 3.8 0 00-1.16 3.06c0 2.48 1.23 6.57 4.27 6.57a3.19 3.19 0 002.56-1.32zm-11.18 1.6l-3.6.83a26.59 26.59 0 01-4.17.43c-7 0-9.61-5.12-9.61-9.13 0-4.89 3.76-9.43 10.2-9.43a14.38 14.38 0 013.85.53A9.7 9.7 0 0174.47 25l-2.09 2-.88.21.63-1a7.2 7.2 0 00-5.4-2.37c-4 0-7 3-7 7.44a8.92 8.92 0 008.93 9.2 7.35 7.35 0 003.2-.63v-4.07l-3.8.2 2-1.08h5.35l-.65.63a.58.58 0 00-.26.4v4.29z"/><path class="cls-8" d="M119.9 39.5c-.83-.08-1-.23-1-1.22V23.84c.1-.89.35-1 1.14-1.49h-3.61l-1.89.91h1.92v15.58c0 .5-.1.58-.68 1.34h4.47l.93-.56-1.29-.12zm10.27.23c-.28.15-.55.32-.83.45a5.89 5.89 0 01-2.43.47 5.37 5.37 0 01-3.33-1 6.49 6.49 0 01-2.58-5.26 5.67 5.67 0 015.73-5.78 4.83 4.83 0 012.58.7 4.11 4.11 0 011.75 2.48l-5.88 2.38-1.93.15c.63 3.18 2.78 5 5.16 5a6.57 6.57 0 003.06-.87l-1.33 1.25zm-2.36-7.47c.48-.17.73-.32.73-.67a2.49 2.49 0 00-2.48-2.16c-1 0-2.88.78-2.88 3.48 0 .43 0 .88.07 1.33l4.56-2zm4.78-3.48v1.65h-.2v-1.65h-.55v-.17h1.29v.17zm2.25 1.65v-1.67l-.51 1.67h-.16l-.51-1.67v1.67h-.18v-1.82h.31l.47 1.47.45-1.47h.29v1.82zM62.1 18h-1.25a8.18 8.18 0 00-.36-1.47h-1.81a7.62 7.62 0 00-.36 1.47h-1.18a26.28 26.28 0 01.91-2.51 20.23 20.23 0 00.95-2.58h1.48a19.91 19.91 0 00.83 2.55A22.05 22.05 0 0162.1 18zm-1.81-2.22c-.44-1.34-.67-2.07-.67-2.18h-.06c0 .1-.23.83-.69 2.18zM67.16 18h-1a9.24 9.24 0 00-1.08-1.7 9.15 9.15 0 01-1.28-2.21h-.07a12.78 12.78 0 01.1 1.55c0 .64 0 1.43.06 2.36H63q.06-1.22.06-2.67T63 12.91h1.17a7.25 7.25 0 001 1.65 10.39 10.39 0 011.19 2.09 15.32 15.32 0 01-.09-1.56v-2.18h1q-.06 1-.06 2.43T67.16 18zm5.67-2.73a2.9 2.9 0 01-.71 1.94 2.48 2.48 0 01-2 .83h-1.6v-5.1h1.62a2.66 2.66 0 012.06.71 2.44 2.44 0 01.63 1.69zm-1.07.17a1.87 1.87 0 00-.44-1.27 1.67 1.67 0 00-1.32-.5h-.46v3.5a2.94 2.94 0 00.51.05 1.49 1.49 0 001.25-.53 2 2 0 00.4-1.27zM78.07 18h-1.16a7.79 7.79 0 00-.7-1.71.9.9 0 00-.78-.33H75v2h-1.06v-5.1h1.86q1.8 0 1.8 1.23a1.37 1.37 0 01-1 1.36v.06a1.23 1.23 0 01.69.62 13.79 13.79 0 01.78 1.87zm-1.47-3.6c0-.52-.34-.78-1-.78a3.06 3.06 0 00-.65.06v1.58h.36c.87.01 1.29-.26 1.29-.86zm7.08 1a2.8 2.8 0 01-.74 2 2.4 2.4 0 01-1.82.79 2.29 2.29 0 01-1.73-.73 2.57 2.57 0 01-.7-1.84 2.82 2.82 0 01.74-2 2.38 2.38 0 011.82-.79 2.3 2.3 0 011.73.72 2.55 2.55 0 01.7 1.85zm-1.08.12a2 2 0 00-.42-1.33 1.28 1.28 0 00-1-.51 1.19 1.19 0 00-1 .51 2 2 0 00-.4 1.3 2.06 2.06 0 00.42 1.33 1.28 1.28 0 001 .51 1.21 1.21 0 001-.52 2 2 0 00.4-1.29zM85.9 18h-1.11v-5.1h1.11q-.06 1-.06 2.43T85.9 18zm5.67-2.73a2.85 2.85 0 01-.71 1.94 2.48 2.48 0 01-2 .83h-1.6q.06-1.19.06-2.67t-.06-2.43h1.63a2.65 2.65 0 012 .71 2.44 2.44 0 01.63 1.69zm-1.07.17a1.92 1.92 0 00-.43-1.27 1.68 1.68 0 00-1.34-.51h-.47v3.5a2.94 2.94 0 00.51.05 1.49 1.49 0 001.25-.53 2 2 0 00.48-1.23zM99.1 18h-1.25a8.18 8.18 0 00-.36-1.47h-1.81a7.62 7.62 0 00-.36 1.47h-1.18a26.28 26.28 0 01.91-2.51 20.23 20.23 0 00.95-2.58h1.48a19.91 19.91 0 00.83 2.55A22.05 22.05 0 0199.1 18zm-1.81-2.22c-.44-1.34-.67-2.07-.67-2.18h-.06c0 .1-.23.83-.69 2.18zm6.38-1.55a1.54 1.54 0 01-.69 1.39 3.17 3.17 0 01-1.71.44H101v2h-1v-5.1h1.95a2.28 2.28 0 011.26.34 1.15 1.15 0 01.51 1zm-1 .22q0-.84-1.11-.84a3.11 3.11 0 00-.59.06c0 .49.05 1.05.05 1.68h.22c.95.01 1.42-.29 1.42-.89zm5.71-.22a1.54 1.54 0 01-.69 1.39 3.2 3.2 0 01-1.71.44h-.26v2h-1.1v-5.1h1.95a2.28 2.28 0 011.26.34 1.15 1.15 0 01.51 1zm-1 .22q0-.84-1.11-.84a3.11 3.11 0 00-.59.06v1.68h.23c.97.01 1.45-.29 1.45-.89zm8.69.9a2.83 2.83 0 01-.73 2 2.44 2.44 0 01-1.83.79 2.29 2.29 0 01-1.73-.73 2.56 2.56 0 01-.69-1.84 2.82 2.82 0 01.73-2 2.38 2.38 0 011.82-.79 2.3 2.3 0 011.73.72 2.55 2.55 0 01.7 1.85zm-1.08.12a2 2 0 00-.42-1.33 1.28 1.28 0 00-1-.51 1.19 1.19 0 00-1 .51 2 2 0 00-.4 1.3 2.06 2.06 0 00.42 1.33 1.28 1.28 0 001 .51 1.21 1.21 0 001-.52 2 2 0 00.4-1.29zm6.37 2.53h-1a9.48 9.48 0 00-1.07-1.7 9.32 9.32 0 01-1.29-2.2 15.2 15.2 0 01.1 1.55c0 .64 0 1.43.05 2.36h-1q.06-1.22.06-2.67t-.06-2.43h1.16a7.08 7.08 0 001 1.65 9.68 9.68 0 011.18 2.09h.06a15.32 15.32 0 01-.09-1.56c0-.71 0-1.44-.06-2.18h1v2.43c0 .97-.08 1.87-.04 2.66z"/></svg>