<svg width="24" height="22" viewBox="0 0 24 22" fill="none" xmlns="http://www.w3.org/2000/svg">
<path d="M12.0745 21.9994L12.6574 21.4901C12.8557 21.3166 13.054 21.1463 13.2514 20.976C13.6829 20.6046 14.1286 20.2206 14.5577 19.8232C14.8916 19.5141 15.2263 19.2051 15.5602 18.896C17.09 17.4822 18.6723 16.0204 20.2022 14.5475C21.7392 13.0676 22.8709 11.3408 23.5641 9.41458C24.5452 6.6904 23.8322 3.64138 21.7892 1.82867C19.6248 -0.092049 15.8179 -0.873427 12.7304 1.34849C12.4837 1.5259 12.2482 1.71435 12.0198 1.90121C11.9999 1.88466 11.9793 1.8681 11.9595 1.85154C10.777 0.86437 9.46121 0.26513 8.05029 0.0687998C6.28802 -0.175627 4.50909 0.233591 3.04107 1.22234C1.51276 2.2513 0.476181 3.81957 0.122458 5.64016C-0.178127 7.18636 0.0732861 8.75857 0.890972 10.4459C1.83238 12.3871 3.23141 14.1809 5.16895 15.9297C6.66077 17.2757 8.18115 18.6382 9.65235 19.9557C10.1591 20.4099 10.6659 20.864 11.1727 21.3182C11.2536 21.3907 11.3313 21.4467 11.3932 21.4909C11.413 21.505 11.4337 21.52 11.4551 21.5358L12.0745 21.9994ZM16.9045 1.88939C18.2892 1.88939 19.6042 2.42634 20.521 3.24004C21.9914 4.54497 22.4942 6.77004 21.7717 8.7775C21.1769 10.4286 20.2038 11.9125 18.8777 13.189C17.3621 14.6477 15.7878 16.1032 14.2642 17.5106C13.9295 17.8197 13.5948 18.1288 13.2602 18.4387C12.8612 18.8077 12.4536 19.1593 12.0221 19.5307C11.6573 19.2043 11.2917 18.8763 10.9269 18.5491C9.45725 17.2323 7.93767 15.8714 6.44902 14.5278C4.69547 12.9454 3.43841 11.3416 2.60565 9.62353C1.96324 8.2981 1.76814 7.14614 1.991 5.99891C2.56679 3.03662 5.39023 1.61027 7.78698 1.943C8.8537 2.09124 9.8189 2.53515 10.7357 3.30075C10.9047 3.44189 11.072 3.57357 11.233 3.70051C11.3012 3.75413 11.367 3.80617 11.4313 3.85742L12.0285 4.33366L12.6249 3.85584C12.7669 3.74151 12.9056 3.62797 13.0429 3.51522C13.3196 3.28735 13.5806 3.0721 13.8471 2.8805C14.8138 2.18428 15.8782 1.88939 16.9045 1.88939Z" fill="#484851"/>
</svg>
