<svg width="24" height="22" viewBox="0 0 24 22" fill="none" xmlns="http://www.w3.org/2000/svg">
<path d="M12.0745 21.9997L12.6574 21.4903C12.8557 21.3168 13.054 21.1465 13.2514 20.9762C13.6829 20.6049 14.1286 20.2209 14.5577 19.8235C14.8916 19.5144 15.2263 19.2053 15.5602 18.8962C17.09 17.4825 18.6723 16.0207 20.2022 14.5478C21.7392 13.0678 22.8709 11.3411 23.5641 9.41483C24.5452 6.69065 23.8322 3.64162 21.7892 1.82892C19.6248 -0.0918047 15.8179 -0.873183 12.7304 1.34874C12.4837 1.52614 12.2482 1.71459 12.0198 1.90146C11.9999 1.8849 11.9793 1.86834 11.9595 1.85178C10.777 0.864614 9.46121 0.265374 8.05029 0.0690439C6.28802 -0.175383 4.50909 0.233835 3.04107 1.22258C1.51276 2.25154 0.476181 3.81981 0.122458 5.6404C-0.178127 7.1866 0.0732861 8.75882 0.890972 10.4462C1.83238 12.3874 3.23141 14.1812 5.16895 15.93C6.66077 17.2759 8.18115 18.6384 9.65235 19.9559C10.1591 20.4101 10.6659 20.8643 11.1727 21.3184C11.2536 21.391 11.3313 21.4469 11.3932 21.4911C11.413 21.5053 11.4337 21.5203 11.4551 21.536L12.0745 21.9997Z" fill="#45B2B9"/>
</svg>
