<svg width="18" height="18" viewBox="0 0 18 18" fill="none" xmlns="http://www.w3.org/2000/svg">
<path d="M14.51 0H3.47102C1.55532 0 0 1.55532 0 3.47102V7.15069V14.51C0 16.4257 1.55532 17.981 3.47102 17.981H14.51C16.4257 17.981 17.981 16.4257 17.981 14.51V7.15069V3.47102C18 1.55532 16.4257 0 14.51 0ZM15.5153 2.06744H15.9136V2.46575V5.12118H12.8788V2.06744H15.5153ZM6.42993 7.15069C6.99895 6.35406 7.94731 5.82297 8.99052 5.82297C10.0527 5.82297 10.9821 6.35406 11.5511 7.15069C11.9305 7.6628 12.1581 8.30769 12.1581 8.99052C12.1581 10.7355 10.7355 12.1581 8.99052 12.1581C7.24552 12.1581 5.82297 10.7355 5.82297 8.99052C5.82297 8.30769 6.05058 7.6628 6.42993 7.15069ZM16.236 14.51C16.236 15.4584 15.4584 16.236 14.51 16.236H3.47102C2.52266 16.236 1.74499 15.4584 1.74499 14.51V7.15069H4.43836C4.21075 7.71971 4.07798 8.34563 4.07798 8.99052C4.07798 11.7028 6.27819 13.9031 8.99052 13.9031C11.7028 13.9031 13.9031 11.7028 13.9031 8.99052C13.9031 8.34563 13.7703 7.71971 13.5427 7.15069H16.236V14.51Z" fill="#60C1C7" fill-opacity="0.5"/>
</svg>
