<svg width="9" height="24" viewBox="0 0 9 24" fill="none" xmlns="http://www.w3.org/2000/svg">
<path d="M3.46119 23.8299C2.39088 23.3724 1.99128 22.5695 2.03018 21.418C2.09029 19.6462 2.03843 17.8709 2.05375 16.0968C2.05611 15.7586 1.98774 15.5315 1.68716 15.3232C1.07892 14.9031 0.728826 14.2875 0.658101 13.555C0.475393 11.6345 0.295043 9.71295 0.158307 7.78902C0.0475037 6.22437 0.923321 5.34316 2.51582 5.33965C3.81128 5.33731 5.10791 5.3338 6.40337 5.34082C7.84146 5.34901 8.74792 6.25129 8.65244 7.66849C8.52042 9.6322 8.333 11.5912 8.14793 13.5503C8.07839 14.2829 7.72947 14.8984 7.12123 15.3197C6.81947 15.528 6.7511 15.7562 6.75464 16.0933C6.76996 17.8674 6.7181 19.6427 6.77704 21.4145C6.81594 22.5637 6.41516 23.3688 5.3472 23.8299C4.71892 23.8299 4.09065 23.8299 3.46119 23.8299Z" fill="#60C1C7"/>
<path d="M4.38546 0.425606C5.56068 0.416244 6.52255 1.35948 6.52491 2.52624C6.52727 3.69183 5.56776 4.64092 4.39371 4.63507C3.24206 4.62922 2.30024 3.70471 2.28491 2.56252C2.26723 1.39342 3.20906 0.434968 4.38546 0.425606Z" fill="#60C1C7"/>
</svg>
