<svg width="20" height="11" viewBox="0 0 20 11" fill="none" xmlns="http://www.w3.org/2000/svg">
<path d="M4.10137 8.00729C2.44024 5.96144 1.17778 3.70782 0.0980422 1.3583C-0.134516 0.84684 0.0482083 0.591109 0.629604 0.591109C1.49339 0.591109 2.34057 0.591109 3.20436 0.591109C3.88542 0.591109 3.96848 0.687008 4.28409 1.2624C4.81565 2.31729 5.39705 3.35619 5.99506 4.37911C6.19439 4.71476 6.47678 5.00246 6.77579 5.25819C7.14124 5.57785 7.49007 5.48195 7.62297 5.03442C7.95519 3.94757 8.03825 2.84473 7.68941 1.7419C7.57313 1.31035 7.29074 0.958722 6.77579 0.862823C6.72595 0.84684 6.67612 0.79889 6.55984 0.750941C6.74257 0.623076 6.85884 0.495211 7.02496 0.431278C8.35386 -0.0961655 9.71599 -0.128132 11.0947 0.271447C11.5598 0.399312 11.726 0.639059 11.7093 1.11855C11.6927 2.17344 11.6429 3.21234 11.6263 4.25125C11.6263 4.53894 11.6761 4.82664 11.7758 5.09835C11.9087 5.48195 12.2077 5.56186 12.5399 5.29015C12.8057 5.06639 13.0715 4.79467 13.2874 4.52296C14.0682 3.50004 14.6662 2.3972 15.1645 1.23043C15.4137 0.671025 15.5133 0.591109 16.1446 0.591109C17.1911 0.591109 18.221 0.591109 19.2675 0.591109C19.8821 0.591109 20.1147 0.84684 19.8821 1.39027C19.6496 1.93369 19.3505 2.44515 19.0183 2.94063C18.5864 3.56397 18.0881 4.15535 17.623 4.76271C17.4735 4.95451 17.3074 5.1463 17.1579 5.35408C16.4934 6.23316 16.5432 6.52085 17.3572 7.28804C18.1047 8.00729 18.8356 8.75849 19.5499 9.52568C19.7326 9.71748 19.8655 9.98919 19.9486 10.2449C20.0981 10.6445 19.9153 10.8842 19.4834 10.9642C19.4004 10.9801 19.3339 10.9961 19.2509 10.9961C18.1878 10.9961 17.1246 10.9961 16.0615 10.9642C15.5133 10.9642 15.0648 10.7084 14.716 10.3408C14.3173 9.94124 13.9353 9.5097 13.5366 9.11012C13.3373 8.91832 13.1213 8.72653 12.8721 8.59866C12.4735 8.3749 12.0748 8.4708 11.9253 8.87037C11.7758 9.30192 11.6927 9.74945 11.6595 10.197C11.6097 10.8043 11.4436 10.9961 10.8123 10.9961C9.66616 11.0121 8.51998 10.9961 7.42363 10.5966C6.02828 10.0691 4.99838 9.1261 4.10137 8.00729Z" fill="#60C1C7" fill-opacity="0.5"/>
</svg>
