<svg width="18" height="15" viewBox="0 0 18 15" fill="none" xmlns="http://www.w3.org/2000/svg">
<path d="M18 1.67729C17.3609 1.99178 16.6154 2.20144 15.8698 2.30627C16.6154 1.88695 17.2544 1.15313 17.4675 0.314491C16.7219 0.733813 15.9763 1.0483 15.1243 1.15313C14.4852 0.419322 13.5266 0 12.4615 0C10.4379 0 8.73373 1.67729 8.73373 3.66906C8.73373 3.98356 8.73373 4.19322 8.84024 4.50771C5.75148 4.29805 2.98225 2.93525 1.1716 0.628983C0.852071 1.25797 0.639053 1.88695 0.639053 2.51593C0.639053 3.7739 1.27811 4.92703 2.3432 5.55601C1.70414 5.55601 1.1716 5.34635 0.639053 5.13669C0.639053 6.91881 1.91716 8.38643 3.6213 8.70092C3.30178 8.80576 2.98225 8.91059 2.66272 8.91059C2.4497 8.91059 2.23669 8.91059 1.91716 8.80575C2.3432 10.2734 3.72781 11.3217 5.43195 11.3217C4.15385 12.2652 2.55621 12.8941 0.852071 12.8941C0.532544 12.8941 0.213018 12.8941 0 12.8941C1.59763 13.9424 3.6213 14.5714 5.75148 14.5714C12.568 14.5714 16.2959 9.01542 16.2959 4.19322C16.2959 3.98356 16.2959 3.87873 16.2959 3.66906C16.9349 3.14491 17.574 2.4111 18 1.67729Z" fill="#60C1C7" fill-opacity="0.5"/>
</svg>
