<svg width="9" height="24" fill="none" xmlns="http://www.w3.org/2000/svg"><path d="M3.461 23.83c-1.07-.458-1.47-1.26-1.43-2.412.06-1.772.007-3.547.023-5.321.002-.338-.066-.566-.367-.774a2.36 2.36 0 01-1.029-1.768c-.183-1.92-.363-3.842-.5-5.766-.11-1.565.765-2.446 2.358-2.45 1.295-.002 2.592-.005 3.887.002 1.438.008 2.345.91 2.25 2.327-.133 1.964-.32 3.923-.505 5.882a2.359 2.359 0 01-1.027 1.77c-.302.208-.37.436-.366.773.015 1.774-.037 3.55.022 5.322.039 1.149-.362 1.954-1.43 2.415H3.461zM4.385.426a2.116 2.116 0 012.14 2.1 2.116 2.116 0 01-2.131 2.11 2.115 2.115 0 01-2.11-2.073A2.11 2.11 0 014.386.426z" fill="#60C1C7"/></svg>