<svg width="9" height="16" viewBox="0 0 9 16" fill="none" xmlns="http://www.w3.org/2000/svg">
<path d="M8.2123 13.5044C8.08698 12.9736 7.28225 13.8485 6.42475 13.9729C5.56725 14.0974 5.63321 13.2262 5.63321 13.2262C5.63321 13.2262 6.68398 7.63247 6.83239 6.25348C6.9531 5.13647 5.87397 5.13647 5.87397 5.13647H1.94003C0.455893 5.13647 0.795595 6.06493 1.97631 6.21116C3.09435 6.34993 2.80676 7.17197 2.80676 7.17197C2.80676 7.17197 2.23619 10.5809 1.96971 12.1683C1.70322 13.7558 1.86945 13.9319 1.86945 13.9319C1.86945 13.9319 2.33514 15.4384 4.74537 15.4384C7.15494 15.4384 8.33829 14.0352 8.2123 13.5044Z" fill="#60C1C7" fill-opacity="0.5"/>
<path d="M4.97395 4.32749C6.21255 4.32749 7.21664 3.38023 7.21664 2.21172C7.21664 1.04321 6.21255 0.0959473 4.97395 0.0959473C3.73535 0.0959473 2.73126 1.04321 2.73126 2.21172C2.73126 3.38023 3.73535 4.32749 4.97395 4.32749Z" fill="#60C1C7" fill-opacity="0.5"/>
</svg>
