<svg width="9" height="16" viewBox="0 0 9 16" fill="none" xmlns="http://www.w3.org/2000/svg"><path d="M8.212 13.504c-.125-.53-.93.345-1.787.469-.858.124-.792-.747-.792-.747s1.051-5.594 1.2-6.973c.12-1.117-.959-1.117-.959-1.117H1.94c-1.484 0-1.144.929.036 1.075 1.118.139.83.961.83.961l-.836 4.996c-.267 1.588-.1 1.764-.1 1.764s.465 1.506 2.875 1.506 3.593-1.403 3.467-1.934zM4.974 4.327c1.239 0 2.243-.947 2.243-2.115 0-1.169-1.004-2.116-2.243-2.116-1.239 0-2.243.947-2.243 2.116 0 1.168 1.004 2.115 2.243 2.115z" fill="#60C1C7" fill-opacity=".5"/></svg>