<svg width="38" height="29" fill="none" xmlns="http://www.w3.org/2000/svg"><g clip-path="url(#clip0)"><path d="M36.35.71C34.6.7 32.85.7 31.11.71c-.95.01-1.67.77-1.65 1.67.01.92.74 1.6 1.7 1.61h1.1L29.77 6.4a10.05 10.05 0 00-11.1-.19 10.08 10.08 0 00-10.55.66 9.44 9.44 0 00-3.86 5.63 9.76 9.76 0 001.53 8.12L4.4 22l-.15.11-.21-.2-1.23-1.22a1.66 1.66 0 00-2.24-.07 1.62 1.62 0 00-.25 2.2c.22.3.5.54.75.8l.85.83L.48 25.9a1.63 1.63 0 000 2.32c.64.64 1.68.64 2.34 0 .42-.4.82-.81 1.23-1.22l.21-.2c.5.49.96.96 1.43 1.4.7.67 1.73.66 2.38 0 .65-.66.62-1.66-.05-2.34l-.8-.78-.6-.6 1.53-1.52c3.17 2.3 7.7 2.48 11.18.24a10.08 10.08 0 0010.16-.4 9.6 9.6 0 004.15-5.57 9.71 9.71 0 00-1.41-8.4l2.44-2.42v1.07a1.66 1.66 0 103.32 0V2.42c0-.95-.67-1.69-1.64-1.7zM19.16 18.93a6.5 6.5 0 01-.33-8.46 6.52 6.52 0 01.33 8.46zm-9.94.6a6.55 6.55 0 01.02-9.3 6.68 6.68 0 016.8-1.57 9.85 9.85 0 00.48 12.28 6.7 6.7 0 01-7.3-1.4zm14.86 1.55a6.8 6.8 0 01-2.12-.34 9.8 9.8 0 00-.5-12.28 6.7 6.7 0 012.6-.52 6.6 6.6 0 016.65 6.6 6.6 6.6 0 01-6.63 6.54z" fill="#fff"/></g><defs><clipPath id="clip0"><path fill="#fff" transform="translate(0 .7)" d="M0 0h38v28H0z"/></clipPath></defs></svg>