<svg width="24" height="22" viewBox="0 0 24 22" fill="none" xmlns="http://www.w3.org/2000/svg"><path d="M12.075 22l.582-.51.594-.514c.432-.371.878-.755 1.307-1.153l1.002-.927c1.53-1.414 3.112-2.876 4.642-4.349 1.537-1.48 2.669-3.206 3.362-5.132.981-2.725.268-5.774-1.775-7.586-2.164-1.921-5.971-2.702-9.059-.48-.246.177-.482.365-.71.552l-.06-.05C10.777.865 9.46.266 8.05.07a7.185 7.185 0 00-5.009 1.153A6.863 6.863 0 00.122 5.64c-.3 1.546-.049 3.119.769 4.806.941 1.941 2.34 3.735 4.278 5.484 1.492 1.346 3.012 2.708 4.483 4.026l1.52 1.362c.082.073.16.129.221.173l.062.045.62.463zm4.83-20.11c1.384 0 2.7.536 3.616 1.35 1.47 1.305 1.973 3.53 1.25 5.537-.594 1.652-1.567 3.136-2.893 4.412a310.435 310.435 0 01-4.614 4.322l-1.004.928c-.399.369-.806.72-1.238 1.092l-1.095-.982c-1.47-1.317-2.99-2.678-4.478-4.021-1.754-1.583-3.01-3.186-3.843-4.904-.643-1.326-.838-2.478-.615-3.625.576-2.962 3.4-4.389 5.796-4.056 1.067.148 2.032.592 2.949 1.358.169.14.336.273.497.4l.198.156.598.477.596-.478c.142-.114.28-.228.418-.34.277-.229.538-.444.804-.635a5.18 5.18 0 013.057-.992z" fill="#484851"/></svg>