<svg width="52" height="49" viewBox="0 0 52 49" fill="none" xmlns="http://www.w3.org/2000/svg"><path d="M25.943 48.286c-1.79-1.622-3.595-3.19-5.325-4.838-4.081-3.884-8.232-7.703-12.157-11.745-3.317-3.417-6.018-7.33-7.577-11.932-2.678-7.9.905-16.096 8.369-18.788 6.09-2.196 11.433-.62 16.054 3.8.215.206.41.432.553.583 1.275-1.011 2.449-2.116 3.78-2.97 8.501-5.451 19.52-1.085 21.933 8.655 1.03 4.159.087 8.034-1.76 11.75-2.192 4.41-5.265 8.174-8.776 11.538-4.835 4.634-9.81 9.122-14.725 13.67-.094.091-.208.16-.369.277z" fill="#60C1C7" fill-opacity=".5"/></svg>