<svg width="18" height="18" viewBox="0 0 18 18" fill="none" xmlns="http://www.w3.org/2000/svg"><path d="M14.51 0H3.471A3.473 3.473 0 000 3.471V14.51a3.473 3.473 0 003.471 3.471H14.51a3.473 3.473 0 003.471-3.471V3.471C18 1.555 16.426 0 14.51 0zm1.005 2.067h.399v3.054h-3.035V2.067h2.636zM6.43 7.151a3.17 3.17 0 012.56-1.328c1.063 0 1.992.531 2.561 1.328a3.1 3.1 0 01.607 1.84 3.173 3.173 0 01-3.167 3.167 3.173 3.173 0 01-3.168-3.167 3.1 3.1 0 01.607-1.84zm9.806 7.359c0 .948-.778 1.726-1.726 1.726H3.471a1.732 1.732 0 01-1.726-1.726V7.15h2.693a4.968 4.968 0 00-.36 1.84 4.914 4.914 0 009.825 0c0-.644-.133-1.27-.36-1.84h2.693v7.36z" fill="#60C1C7" fill-opacity=".5"/></svg>