<svg width="20" height="11" viewBox="0 0 20 11" fill="none" xmlns="http://www.w3.org/2000/svg"><path d="M4.101 8.007c-1.66-2.046-2.923-4.3-4.003-6.649C-.135.847.048.591.63.591h2.574c.681 0 .764.096 1.08.671A57.24 57.24 0 005.995 4.38c.2.336.482.623.78.88.366.319.715.223.848-.225.332-1.086.415-2.19.066-3.292-.116-.432-.398-.783-.913-.88-.05-.015-.1-.063-.216-.111.183-.128.299-.256.465-.32 1.329-.527 2.691-.56 4.07-.16.465.128.631.368.614.848-.016 1.054-.066 2.093-.083 3.132 0 .288.05.576.15.847.133.384.432.464.764.192a5.54 5.54 0 00.747-.767c.781-1.023 1.38-2.126 1.877-3.293.25-.559.35-.639.98-.639h3.123c.615 0 .848.256.615.8a9.528 9.528 0 01-.864 1.55c-.432.623-.93 1.214-1.395 1.822-.15.192-.316.383-.465.591-.665.88-.615 1.167.2 1.934.747.72 1.478 1.47 2.192 2.238.183.191.316.463.399.719.15.4-.034.64-.466.72-.083.015-.15.031-.232.031-1.063 0-2.126 0-3.19-.032-.548 0-.996-.256-1.345-.623-.399-.4-.78-.831-1.18-1.23-.199-.193-.415-.384-.664-.512-.399-.224-.797-.128-.947.271a5.23 5.23 0 00-.266 1.327c-.05.607-.215.8-.847.8-1.146.015-2.292 0-3.388-.4-1.396-.528-2.426-1.47-3.323-2.59z" fill="#60C1C7" fill-opacity=".5"/></svg>