<svg xmlns="http://www.w3.org/2000/svg" fill="#fff" viewBox="0 0 46.75 44.58"><circle cx="32.22" cy="6.74" r="6.74"/><circle cx="5.99" cy="8.62" r="5.99" transform="rotate(-84.35 6 8.61)"/><path d="M41.59 28.85a21.91 21.91 0 00-2.87-2.13c0-2.5-.13-4.24-.13-4.24s.37-6-4.87-6a5 5 0 00-4.41 2.34 17.33 17.33 0 01-7.2-2.72c-3.38-2.61-6.33-2.1-6.33-2.1-4.18.23-5.63 5.45-5.63 5.45s4.87 3 6.37 6.75a.78.78 0 00.05.14 15.79 15.79 0 00-4.18.61c-1.3.65-.06 3.55 5.68 3.57A8.92 8.92 0 0019.46 33H18c-6 0-12 4.5-14.61 9.37C.17 48.27 11.24 39 18.36 39s7.49 5.58 14.64 5.58c3.46 0 4.88-5.21 5.43-10.58 3.54 3.34 7 7.79 7.68 6.09 1.1-2.62 1.47-6-4.52-11.24zM24 21a35.6 35.6 0 004.55.46 8.57 8.57 0 00-.06 1v.31l-.72.57a45.92 45.92 0 00-3.78-.13c-2.33 0-2.89-1.79-3.31-3.79C22.55 20.41 24 21 24 21zm4.1 15.72c-.53-.18-1.48-1-3-1.87a10.6 10.6 0 003.57-2.35c.08 2.61-.03 4.4-.57 4.22z"/></svg>