<svg xmlns="http://www.w3.org/2000/svg" fill="#fff" viewBox="0 0 36.39 32.69"><path d="M32.3 27.43c-.36-.06-.83-.1-1.38-.14-1.39-2.83-4-11.34-5-13.59a5.62 5.62 0 00-2-2.51 3.27 3.27 0 00-1.25-.58c-2.2-.52-2.75 1-4.95 2.06-1.55.73-4 1.42-3.29 3.61.5 1.56 2.51 1.27 2.51 1.27-.35 1-1.74 6.52-1.74 6.52l-2.9.54a64 64 0 01-2.46-10 4.21 4.21 0 00-4.09-3.5C2.24 11.09 2 15.47 2 15.47L.78 23.06c-1.75 8.17 0 9.63 0 9.63h35.61s-.58-4.69-4.09-5.26zM23.12 17L29 27.19c-2.26-.07-5.14-.08-7.81-.14 1.3-1.81.59-4.46.47-6.4A5.52 5.52 0 0123.12 17zm-18 6.92c.68-1.71 2 1.46 2.62 4.38a5.79 5.79 0 00.17.63c-2.02.01-4.55-.5-2.75-5z"/><circle cx="5.45" cy="4.96" r="4.09"/><circle cx="23.83" cy="4.09" r="4.09"/></svg>