<svg width="274" height="213" viewBox="0 0 274 213" fill="none" xmlns="http://www.w3.org/2000/svg">
<path d="M87.6027 0.116856C69.8358 -0.267483 53.0822 3.2658 37.9926 13.0926C29.8123 18.4209 23.3965 25.5312 17.9939 33.5498C5.92224 51.4695 0.0742125 71.359 0.585197 92.895C1.10055 114.772 9.92284 133.399 24.1389 149.759C32.2231 159.067 41.4254 166.976 52.7502 171.841C60.3977 175.126 68.4469 177.694 76.5311 179.694C84.5891 181.69 92.5466 179.838 100.111 176.571C104.649 174.61 109.239 172.741 113.663 170.54C124.923 164.949 134.859 167.173 144.083 175.113C150.804 180.899 157.478 186.774 164.54 192.124C194.291 214.66 234.896 206.13 255.03 182.249C265.625 169.684 270.997 154.869 272.674 138.609C274.771 118.309 267.525 101.062 255.318 85.4878C247.81 75.9099 239.39 67.1619 228.122 62.065C221.326 58.9903 214.063 56.9507 206.996 54.4919C200.681 52.295 194.304 50.2598 188.02 47.9669C180.25 45.128 174.21 39.7298 168.279 34.2093C160.103 26.5968 151.363 19.7093 141.65 14.1757C125.456 4.94728 107.872 0.741405 89.3409 0.121223C88.7644 0.103753 88.1835 0.116856 87.6027 0.116856Z" fill="#F7ECED"/>
<path d="M128.775 183.065C121.241 183.057 115.904 186.66 114.188 192.172C112.397 197.924 115.105 204.444 119.996 208.344C123.753 211.34 127.753 212.86 132.396 212.777C142.969 212.585 148.996 202.557 144.114 193.189C140.694 186.621 134.955 183.515 128.775 183.065Z" fill="#F7ECED"/>
</svg>
