<svg width="274" height="213" viewBox="0 0 274 213" fill="none" xmlns="http://www.w3.org/2000/svg"><path d="M87.603.117c-17.767-.384-34.52 3.149-49.61 12.976-8.18 5.328-14.597 12.438-20 20.457C5.924 51.47.075 71.359.586 92.895c.516 21.877 9.338 40.504 23.554 56.864 8.084 9.308 17.286 17.217 28.611 22.082 7.648 3.285 15.697 5.853 23.781 7.853 8.058 1.996 16.016.144 23.58-3.123 4.538-1.961 9.128-3.83 13.552-6.031 11.26-5.591 21.196-3.367 30.42 4.573 6.721 5.786 13.395 11.661 20.457 17.011 29.751 22.536 70.356 14.006 90.49-9.875 10.595-12.565 15.967-27.38 17.644-43.64 2.097-20.3-5.149-37.547-17.356-53.121-7.508-9.578-15.928-18.326-27.196-23.423-6.796-3.075-14.059-5.114-21.126-7.573-6.315-2.197-12.692-4.232-18.976-6.525-7.77-2.839-13.81-8.237-19.741-13.758-8.176-7.612-16.916-14.5-26.629-20.033C125.456 4.947 107.872.74 89.34.12c-.576-.017-1.157-.004-1.737-.004z" fill="#F7ECED"/><path d="M128.775 183.065c-7.534-.008-12.871 3.595-14.587 9.107-1.791 5.752.917 12.272 5.808 16.172 3.757 2.996 7.757 4.516 12.4 4.433 10.573-.192 16.6-10.22 11.718-19.588-3.42-6.568-9.159-9.674-15.339-10.124z" fill="#F7ECED"/></svg>