<svg xmlns="http://www.w3.org/2000/svg" fill="#fff" viewBox="0 0 67.27 57.88"><path d="M63.2.31a16.23 16.23 0 00-5.43-.15c-4 .57-7.51 2.57-11 4.43-.65.34-1.28.7-1.89 1a35.86 35.86 0 00-2.11-3.08C41.47 1 39.93-.12 37.82 0c-4.11.3-8.21.67-12.31 1-6.71.61-13.41 1.21-20.13 1.74C1.79 3-.42 5.56.07 9.15c.41 3.07 3.67 5.85 6.69 5.11a29.69 29.69 0 013.42-.38c.16 3.5.37 6.82.47 10.13.16 4.95 0 9.91.42 14.84a27 27 0 005 13.9A14.14 14.14 0 0020.78 57c2.92 1.57 5.73.9 8.49-.35L54.9 45a3.8 3.8 0 00-2.18-7.14c-.53.08-1 .23-1.86.4-.61-1.52-1.28-3-1.81-4.5-1.6-4.6-1.6-9.41-1.72-14.19 0-.36.53-.9.93-1.09q5.68-2.69 11.42-5.28c2.65-1.2 5.12-2.69 6.69-5.2 1.99-3.27.54-6.92-3.17-7.69zM48.88 39l-25.57 9.05c.82.14 1.4.18 1.94.33a4 4 0 013 4.77c-.52 1.84-2.86 3-5 2.42a8.81 8.81 0 01-4.72-3.31 24.46 24.46 0 01-5.2-13.55c-.45-5.42-.4-10.89-.49-16.34a38.19 38.19 0 00-2.38-13.8C9.9 7.24 9.19 6 8.49 4.53c1.09-.13 2.13-.28 3.18-.37l18-1.56c2.65-.23 5.31-.42 8-.76a3.85 3.85 0 013.63 1.64l.38.49c1.76 2.49 1.76 2.49-.68 4.25a54.16 54.16 0 00-11.72 11.5 4.21 4.21 0 00-1 3.32 2 2 0 01-.18 1.14l-.63-1.51-.47-.06-1 4.25-.83-.55-.31 2.7a8.18 8.18 0 00-.54 1 18.71 18.71 0 01-.83 2.24c-1 1.86-2.11 3.68-3.15 5.52a2.13 2.13 0 00-.24 1.38c.52-.7 1.05-1.4 1.56-2.11.37-.5.71-1 1.07-1.53 1.42-2 2.68-4.05 5.35-4.7 1.09-.26 2-1.18 3.28-2l-1.73-.3v-.19a3.09 3.09 0 01.72-.2 9.73 9.73 0 004.9-1.9c3.16-2.14 6.44-4.11 10-6.34-.16 6.84.51 13.12 3.63 19.12z"/></svg>