<svg width="274" height="213" fill="none" xmlns="http://www.w3.org/2000/svg"><path d="M87.603.117c-17.767-.384-34.52 3.149-49.61 12.976-8.18 5.328-14.596 12.438-19.999 20.457C5.922 51.47.074 71.359.585 92.895c.516 21.877 9.338 40.504 23.554 56.864 8.084 9.308 17.287 17.217 28.612 22.082 7.647 3.285 15.696 5.853 23.78 7.853 8.058 1.996 16.016.144 23.58-3.123 4.538-1.961 9.128-3.83 13.553-6.031 11.259-5.591 21.195-3.367 30.419 4.573 6.722 5.786 13.395 11.661 20.457 17.011 29.751 22.536 70.356 14.006 90.49-9.875 10.595-12.565 15.967-27.38 17.644-43.64 2.097-20.3-5.149-37.547-17.356-53.121-7.508-9.578-15.928-18.326-27.196-23.423-6.796-3.075-14.059-5.114-21.126-7.573-6.315-2.197-12.691-4.232-18.976-6.525-7.77-2.839-13.81-8.237-19.741-13.758-8.176-7.612-16.915-14.5-26.629-20.033C125.456 4.947 107.872.74 89.341.12c-.576-.017-1.157-.004-1.738-.004z" fill="#F7EBE7"/><path d="M128.775 183.065c-7.534-.008-12.871 3.595-14.587 9.107-1.791 5.752.917 12.272 5.809 16.172 3.756 2.996 7.756 4.516 12.399 4.433 10.574-.192 16.601-10.22 11.718-19.588-3.42-6.568-9.159-9.674-15.339-10.124z" fill="#F7EBE7"/></svg>