<svg xmlns="http://www.w3.org/2000/svg" viewBox="0 0 57.35 52.87" fill="#fff"><path d="M28.49 52.87l-1.39-1.22-1.42-1.24c-1-.89-2.09-1.81-3.12-2.77l-2.4-2.22C16.51 42 12.73 38.51 9.07 35A32.28 32.28 0 011 22.63C-1.3 16.08.4 8.75 5.28 4.4a17.42 17.42 0 0121.65-1.16c.59.43 1.15.88 1.69 1.33l.15-.12A18.34 18.34 0 0138.11.17a17.06 17.06 0 0112 2.77 16.47 16.47 0 017 10.62 18.1 18.1 0 01-1.83 11.55A43.18 43.18 0 0145 38.28c-3.56 3.24-7.2 6.51-10.71 9.68l-3.63 3.27a6.35 6.35 0 01-.53.42l-.15.11z"/></svg>