<svg width="714" height="426" fill="none" xmlns="http://www.w3.org/2000/svg"><path d="M480.51 109.6c2.87-3.77 8.14-4.7 11.19-3.07 3.85 2.09 6.04 6.75 8.88 10.21-.43-1.87-.35-4.87-1.76-7.05-5.16-8.01-4.75-9.25 5.16-11.35.68-.14 1.33-.38 2.42-.69-1.63-12.84 15.87-11.5 17.97-23.36 2.26 3.62 3.35 5.35 5.01 8.06 2.23-1.93 4.79-3.2 5.8-5.17 3.94-7.7 4.47-8.02 13.28-5.08-.2 1.95-.36 3.83-.36 3.83 5.18 2.08 10.8 2.75 13.05 5.64 3.26 4.13-.07 8.49-4.28 11.55-3.22 2.35-6.36 4.77-8.94 8.18 9.78-6.27 17.25-1.77 25.27 2.55 1.94 1.05 6.13-1.43 9.05-3.19 13.05-1.84 7.26 10.71 13.13 15.82 1.18-1.89 2.05-3.3 2.88-4.66 3.85.3 7.68.57 11.37.84 3.98-7.7 5.72-7.83 14.04-5.35 5.58 1.65 10.7 3.06 14.3 7.7.64.84 3.3.8 4.9.55 5.25-.88 10.05-1.7 10.4 5.45.05.9 2.77 2.64 3.65 2.36 6.27-1.95 11.8-1.3 16.56 3.19 2.93-5.51 7.03-6.96 13.3-4.4 2.9 1.2 5.32 3.41 8.03 5.07 4.94 3 10 5.83 14.89 8.9 1.46.9 2.5 2.39 3.85 3.72-1.47 1.9-2.9 3.35-3.81 5.02-1.97 3.55-4.1 3.96-7.73 1.59-2.28-1.5-5.4-1.93-8.15-2.84-.6 2.5-.88 5.09-1.9 7.43-.7 1.57-2.29 2.9-3.75 4.01-.78.6-2.58.23-3.22.86-5.51 5.6-12.32 8.46-20.44 9.23-4.54.43-5.7 2.94-4.97 7.18 1.05 6.04-7.2 17.7-13.58 20.1-5.87-12.92 3.24-21.24 11.32-30.02-1.54-.58-3.05-.72-3.73-1.48-3.92-4.47-6.91-1.84-8.34 1.52-2.07 4.94-4.15 6.6-10.26 4.61-7.9-2.56-22.63 4.13-26.43 11.17-.63 1.17-.33 3.45.55 4.5 1.83 2.2 6 3.78 6.18 5.87.4 4.3.14 9.5-2.22 13.01-4.02 6.04-6.55 13.84-16.51 15.25-2.62.38-4.55 4.96-7 7.84.7 1.06 1.69 2.06 2 3.22.47 1.72.71 3.6.53 5.35-.08.6-2.5 1.62-2.64 1.46-1.27-1.32-2.19-2.92-3.38-4.32-1.9-2.24-3.5-5.11-6.03-6.28-1.62-.76-4.65 1.03-7.05 1.69l.23 1.58 2.43 1.1c.28 3.84-.15 6.97.84 9.66 2.77 7.59-2.47 18.33-10.94 22.05-3.85 1.69-9.67 1.34-10.04 7.3-.02.34-1.9.57-2.9.86l-1.46-5.06c-4.77 1.1-5.4 3.3-2.58 6.82 7.42 9.24 7 10.84-4.45 16.1-1-1.04-1.87-2.4-3.14-3.18-1.76-1.06-3.84-1.7-5.76-2.53-.23 1.95-1.37 4.3-.55 5.75 3.87 6.87 9.93 13.05 12.12 20.27 4.58 15.02 17.94 7.72 27.16 10.03 6.82 1.7 14.56.33 21.9.33l.5 1.56c-4.47 1.04-9.03 3.16-13.4 2.91-23.89-1.37-48.22-2.5-58.41-30.47l11.3 5.7c-1.9-3.37-3.34-5.46-4.27-7.73a25.28 25.28 0 01-1.74-6.57c-.52-4.07 2-9.6-6.04-9.75-.56-.01-1.55-1.19-1.55-1.8.03-6.72-5.09-6.29-9.8-5.86-8.1.73-17.41 10.1-17.28 17.4.02 1.45 1.66 2.83 2.13 4.34.54 1.8.62 3.7.88 5.55l-2.38.41-1.87-4.06c-3.18-1.53-5.76-1.98-6.66-3.36-2.15-3.27-4.43-6.87-5-10.55-1.17-7.37-6.57-11.74-11.9-16.17-2.02-1.67-5.2-2.65-7.97-2.96-4.28-.48-8.68-.12-12.45-.12 5.05 4.96 3.44 12.2-4.96 16.4-5.89 2.95-12.23 5.1-19.95 8.27l13.6 2.58c-2.72 4.43-4.72 8.42-7.47 11.9-2.32 2.93-5.33 5.44-8.36 7.8-7 5.44-9.46 11.82-6.66 20.09 1.99 5.87 0 10.74-5.44 14.77-2.11 1.56-3.7 4.71-3.93 7.26-1.08 11.91-15.63 25.67-28.55 26.15-2.06.07-5.45-.65-6.06-1.91-3.05-6.13-5.48-12.53-7.9-18.92-3.85-10.17-4.46-20.55-3.3-31.28.33-3.11-2.85-6.5-4.27-9.83-1.12-2.6-2.5-5.23-2.88-7.95-.5-3.62-9.44-9.26-13.97-8.28-2.93.64-5.83 1.46-8.8 2.03-12.87 2.41-19.89-4.72-25.85-13.53-6.04-8.92-3.05-17.6 1.74-25.62 4.06-6.8 9.4-13 14.58-19.17 1.16-1.4 3.95-1.72 6.06-2.31 2.38-.65 4.85-1.07 7.3-1.53 5.87-1.16 11.7-2.48 17.63-3.27 1.2-.16 3.07 1.48 4.02 2.7 7.22 9.26 11.02 10.52 23.08 7.5 1.23-.3 3.14-.32 3.97.33 5.16 4.17 11.1 2.33 16.73 1.98 4.7-.3 7.35-2.92 7.3-7.59-4.87-.62-9.45-1.9-13.92-1.63-14.47.84-13.95.84-20.08-11.56-1.9-3.82-7.31-6.14-11.13-9.15-.47.46-.93.93-1.42 1.39l11.07 9.38c-3 2.7-5.93 5.37-8.88 8.04-.4-.41-.79-.82-1.18-1.25 1.57-1.57 4.6-3.36 4.36-4.62-.34-1.77-3.09-3.18-4.85-4.7-1.34-1.19-2.78-2.27-4.13-3.48-3.95-3.53-11.9-2.84-15.28 1.35-2.77 3.4-5.5 6.85-8.38 10.15-3.23 3.72-7.4 3.76-16.44.33.23-3.7.04-7.56.94-11.17.3-1.2 3.33-2.07 5.27-2.64 2.88-.86 5.91-1.32 8.89-1.94-1.48-2.86-2.96-5.73-4.47-8.6-.4-.73-.92-1.42-1.69-2.6 13.6-5.69 23.9-14.26 28.9-27.76.56.35 1.14.67 1.7 1.02.35 2.05.45 4.15 1.1 6.1 1.25 3.83 3.8 5.78 8.44 4.23 10.49-3.52 10.84-4.4 14.66-15.41.78-2.25 5.74-3.29 9.13-5.1-1-.24-1.91-.58-2.87-.69-2.93-.36-8.11-.03-8.43-1.03a18.86 18.86 0 01-.02-10.48c.9-3.1 3.48-5.77 4.2-9.92-1.26.37-3.13.38-3.7 1.17-2.91 4.07-5.53 8.32-8.19 12.55-.56.92-1.45 2.38-1.08 2.93 3.44 5 1.53 9.35-1.31 13.8-1.76 2.74-3.12 5.69-4.66 8.53l-2.17-.26c-1.66-4-3.32-7.99-4.99-11.95-10.96 3.4-12.02 2.36-12-8.36.01-5.62 3.77-8.5 7.53-11.68 5.95-5.02 11.77-9.57 9.46-18.78-.6-2.36 5.5-6.75 9.26-9.26 3.67-2.46 8.15-4.77 12.51-5.16 3.86-.37 8.1 1.79 11.97 3.27 2.3.88 4.25 2.58 6.3 3.97 5.45 3.72 10.83 7.5 16.13 11.16-4.87 7.52-10 5.18-15.43 3.1l2.22 9.42 9.67-2 9.93-16.43 2.1 4.67 26.48-8.7-1.87-5.42c6.36 3.3 11.89 6.13 19.09 9.85-5.61-11.17.5-19.16 6.45-28.03l3.9 9.23c-.42 4.96-1.71 10.04-.98 14.86.8 5.4.4 9.76-6.02 13.46 11.54.19 5.78-10.04 9.37-11.45-.96-6.35-1.76-11.72-2.55-17.1zm-83.07 95.2c-2.58 3.85-4.47 5.8-5.18 8.05-.35 1.12 1.2 3.79 2.34 4.06a203.21 203.21 0 0017.73 3.16 8.1 8.1 0 004.43-.83c.52-.26.75-2.5.36-2.72-3.43-2-7.24-5.5-10.5-5.13-4.9.57-7.3-.34-9.18-6.6zm19.64 72.06c1.36-.6 2.75-1.2 4.11-1.81l-14.66-24.07-2.65 1.28 13.2 24.6zm23.73-69.95c-.73-.44-1.44-.9-2.17-1.36-3.25 1.4-6.5 2.8-9.16 3.93 1.59 4.56 2.32 7.92 3.94 10.84.8 1.45 3.3 2.12 5.02 3.15.14-1.77 1.2-4.23.31-5.2-3.81-4.18-4.37-7.78 2.06-11.36zm-6.9 39.01c-.62.73-1.22 1.45-1.83 2.15 4.43 1.47 3.64 10.28 12.88 6.06l-11.05-8.2zM220.17 194.04l-8.54 5.52c-2.3-.94-4.68-1.93-7.07-2.89l-.64 1.14L215.16 210c-3.87 1.13-7.28 1.9-10.47 3.13-3 1.15-6.57 2.17-8.51 4.3-7.7 8.44-14.85 17.3-22.26 26.05.96 3.32 2.08 7.21 3.18 11.08l-2.62 1.07c-1.08-1.13-2.31-2.17-3.2-3.42-.6-.87-.42-2.2-1.08-3-5.78-7.06-13.72-2.55-20.57-2.69-5.03-.1-7.85 4.03-7.24 9.21.17 1.48-.54 3.19.04 4.46 1.36 3.01 3.25 5.82 4.94 8.71 2.82-1.5 5.6-3.04 8.47-4.45 1.9-.95 3.93-1.7 5.89-2.52l1.25 2.02-6.82 5.1 13.4 3.43c.21 1.36.16 3.52.92 5.41.94 2.34 2.17 6.03 3.93 6.35 3.42.66 7.93.4 10.8-1.25 6.31-3.6 11.98-6.74 18.97-1.54 1.12.85 3.13.59 4.58 1.16 2.77 1.05 5.45 2.29 8.12 3.52.6.28.9 1.12 1.5 1.33 13.99 4.94 22.05 18.75 37.66 21.3 2.2.36 4.25 1.68 6.32 2.66 5.26 2.5 5.63 7.08 2.26 10.1-4.45 4.02-5.21 8.74-6.58 13.66-1.64 5.94-3.87 11.55-12.14 12.2-1.6.13-3.87 1.35-4.5 2.64-3.07 6.04-5.67 12.27-8.83 19.28l-10.06 1.84c.88 5.25-.08 8.82-7.37 9.45-2.4.2-4.36 5.27-6.4 8.18-1.25 1.79-2.58 3.62-3.29 5.61-2.15 5.96-5.2 11.97-5.53 18.06-.2 3.6 4.08 7.42 6.84 11.96-2.5.4-6.64 2.24-9.8 1.33-6.52-1.9-11.98-6.56-11.44-13.2 1.12-13.6 3.44-27.13 5.44-40.66 1.51-10.2 3.55-20.34 4.7-30.54.2-1.81-2.36-4.55-4.42-5.79-9.72-5.87-11.84-16.16-16.81-24.65-1.24-2.12 1.6-6.82 3.53-9.83 4.51-7.02 3.82-8.4-4.32-10.67-3.44-.97-7.25-3.48-9-6.3-4-6.48-11.16-6.73-17.31-9-4.98-1.85-10.2-3.1-15.04-5.17-2.39-1.02-4.58-3.01-6.13-5.03-5.67-7.37-11.03-14.92-16.51-22.4-.68.38-1.35.78-2 1.16l10.88 14.58-2.3 1.43c-4.17-4.89-8.44-9.71-12.48-14.69-4.28-5.25-8.71-10.44-12.41-16.02-1.93-2.9-3.56-6.63-3.35-9.88.56-8.52.86-16.03-6.62-23.14-7.7-7.33-13.24-16.6-19.86-24.9-3.52-4.43-16.2-8.41-21.56-6.22-2.6 1.06-4.53 3.9-6.3 6.25-1.63 2.15-2.64 4.7-5.4 6.62l.33-3.6-27.36 15.45L0 187.77c3.63-2.6 7.2-5.27 10.9-7.76 3.46-2.33 7.07-4.46 10.55-6.63-6.04-4-10.8-6.6-14.81-9.97-3.35-2.82-1.78-8.04 2.28-10.34 1.9-1.09 3.6-2.5 6.85-4.8-6.64-1.02-13.68 1.47-13.77-5.57-.02-1.77 4.94-3.61 8.44-5.99.1 1.33.24.83.01.57-7.38-8.68-6.47-7.92 1.07-15.89 9.82-10.38 19.15-3.77 28.86-1.34 7.08 1.77 14.02 4.23 21.2 5.37 2.88.45 6.38-1.64 9.4-2.98 4.31-1.91 7.27-3.2 13.2-1.13a136.2 136.2 0 0018.64 4.83c1.68.33 4.3 1.3 4.56 2.34 1.7 7.18 6.68 3.88 9.26 1.84 4.73-3.7 8.25-4.87 12.96-.13 1.33 1.34 4.6 1.05 6.98 1.5.3-1.76.1-3.77 1.02-5.19 1.3-2 3.39-3.54 4.87-5l2.63-13.81a3965.6 3965.6 0 00-5.66 6.95c-2.84-3-5.3-5.56-8.21-8.64 4.97-1.33 1.8-9.3 8.84-8.38 1.6.2 2.75 3.23 4.21 5.1l2.71-6.57 9.15 1.07c-2.1 3.46-4.2 6.3-5.57 9.42-.8 1.79-1.35 4.44-.5 5.97 2.48 4.4 1.28 10.86 8.65 12.86 1.46.4 1.78 4.3 2.88 7.27l4.26-9.73c-3.5-3.55-7.63-6-8.86-9.38-1.67-4.56-1.22-9.78 3.55-13.57 3.69-2.92 18.18-2.06 21.36 1.1 4.97 4.98 10.32 9.64 15.37 14.57 1.53 1.5 3.85 3.5 3.7 5.08-.56 5.97 3.73 8.76 7.77 12.01 5.8 4.67 5.7 5.85-.59 11.45l-4.7-2.88c4.76 5.43 6.52 10.78-1.47 16.74-3.29-1.88-7.87-3.65-11.24-6.6-3.47-3-6.11-4.52-10.1.33v-6.68c2.64-2.19 5.2-3.77 6.92-5.92 1.33-1.69 1.58-4.08 2.3-6.16l-8.6.69 3.87-5.58a1988 1988 0 00-7.55-6.11c-.2.05-2.26.67-2.77.8-1.89 6.1-3.72 11.13-4.88 16.27-.4 1.76.56 4 1.5 5.75.95 1.81 2.65 3.27 3.25 6.3-4.79-.74-10.06-2.96-14.21-1.8-4.12 1.15-7.95 5.23-10.42 8.88-4.49 6.6-2.1 13.32 6.94 16.78 6.9 2.64 15.61 4.13 15.91 13.77.04 1.16 2.68 2.26 4.1 3.38.35-1.46.67-2.93 1.08-4.37.88-3.14 1.84-6.24 2.73-9.37.5-1.74 1.44-3.51 1.35-5.23-.24-3.9-1.33-7.8-1.42-11.69-.06-2.1 1-5.92 1.96-6.03 2.98-.34 6.68-.03 9.05 1.45 2.6 1.62 4.14 4.77 5.95 7.35.94 1.34 1.48 2.93 2.75 5.58l6.34-7.82c1.94 3.86 3.38 7.37 5.39 10.59 2.03 3.27 4.99 6.1 6.86 9.42 4.3 7.66 8.17 15.52 12.44 23.7-12.16.02-14.65-2.25-11.32-11.77zM244.93 22.63l-4.02-12.43c19.19-9.07 25.1-14.94 40-5.08-1.1.74-2.13 1.45-2.28 1.53 2.85 2 5.7 4.2 8.77 6.12 5.17 3.25 3.7 6-.86 7.98-2.8 1.23-6.08 1.64-9.2 2.17-2.41.42-4.9.47-8.75.8l14.53 2.54c.19.04.47.04.58-.05 8.53-7.66 5.33 1.57 7.48 5.11 3.65-1.75 7.13-3.92 10.96-5.08 1.7-.51 4.43.6 6.08 1.74.78.54.69 3.14.02 4.32-3.61 6.36-7.63 12.52-11.24 18.87-.77 1.36-.45 3.27-.45 4.94 0 .57.82 1.14.84 1.72.26 7.18 1.6 14.57.22 21.47-.84 4.2-2.03 7.11 2.08 9.23-2.95 4.75-6.7 8.81-8 13.44-1.35 4.72-.3 10.02-.3 15.4l-6.12-.5 4.04 3.99c-3.22 4.45-6.9 8.38-13.45 8.73-.22.01-.52.01-.67.15-6.77 6.08-14.4 11.58-20 18.47-3.68 4.5-4.42 10.98-6.48 16.58-15.63-4.75-24.35-26.53-16.68-40.46-1.82-.6-5.28-1.39-5.22-1.79.36-2.61 1.46-5.13 2.49-8.2l-3.87-1.6c-2.04-8.13-3.58-15.43-5.78-22.58-1.69-5.45-8.36-8.66-15.94-7.2-5.16 1-6.99-1.96-8.56-4.78-.84-1.53.54-4.11 1.08-7.14-.48-.36-2.31-1.36-3.53-2.8-2.19-2.56-3.42-5.16 1-7.27 3.06-1.47 5.68-3.67 8.69-5.24 4.41-2.27 4.95-5.1 1.21-7.98-3.16-2.43-2.77-4.03-.54-6.9 3.68-4.76 6.4-10.15 9.99-14.97a14.49 14.49 0 016.4-4.58c4.67-1.7 9.6-2.89 14.52-3.9 1.14-.24 2.9.87 3.99 1.79 1.47 1.24 2.58 2.85 3.83 4.3 1.07-.26 2.11-.55 3.14-.86z" fill="#556A8A"/><path d="M148.47 82.57c.11 1.36.32 2.7.32 4.06-.02 2.33-.19 4.65-.28 6.98l-8.04-3.93c-.4.17-2.21.98-4.46 2-3.29-4.17-6.45-8.14-9.72-12.31 4.6-.83 8.1-2.34 11.13-1.77 2.99.56 5.5 3.25 7.57 6.12-.9-2.8-1.78-5.6-3.03-9.57 8.98 1.86 19.45 7.22 19.32-8.17-.54-.12-2.41-1.2-3.72-.76-5.24 1.72-7.9-.84-8.8-4.74-1.73-7.23-6.97-13.84-3.67-22.03 2-4.98 3.98-7.18 9.42-3.32-1.27-7.9-1.51-8.18 8.16-15.6 6.45-4.96 13.24-9.57 22.06-10.98 7.46-1.19 22.28 2.25 25.29 6.7 3.85 5.7 2.9 9.38-3.39 12.8-1.16.64-2.54.91-3.8 1.34.55 1.42 1.73 3.14 1.3 3.62-5.65 6.16-6.87 15.6-16.37 18.95-.82.3-1.83 1.81-1.66 2.55 1.46 6.3-.97 11.2-5.43 15.9-1.29 1.37-.58 4.26-.95 6.45-.37 2.2-.97 4.37-1.18 5.23-7.55-.47-14.27-.88-21.52-1.3.9 5.45 3.33 6.57 7.93 5.1 2.31-.74 5.46-1.46 7.35-.58 2 .93 3.46 3.65 4.07 5.85.2.7-2.88 2.74-4.75 3.25a27.8 27.8 0 01-8.84.97c-8.53-.5-10.36-2.36-11.73-10.54-.15-.9-1-1.7-1.55-2.54-.36.12-.7.2-1.03.27zM608.45 319.72l1.37-6.08c-4.48-2.92-13.02-.87-12.09-10.4 8.7 2.06 17.71 3.12 25.59 6.44 4.73 2 7.66 7.56 11.4 11.52-.52.55-1.06 1.1-1.58 1.67-2.47-1.58-4.74-3.89-7.47-4.53-2.26-.53-5.06.88-9.66 1.88 7.27 9.2 13.03 17.06 19.45 24.41 5.6 6.42 6.76 13.82 2.24 20.71-1.07 1.64-2.56 3.46-2.55 5.2.1 7.73-6.6 9.16-12.06 9.54-3.23.22-6.82-3.8-10.26-5.9-5.05-3.07-9.73-7.69-15.25-8.79-5.14-1.03-11.16 1.64-16.79 2.76-4.28.84-8.53 2.15-12.85 2.5-1.03.08-2.88-2.7-3.44-4.41-1.23-3.84-1.5-7.96-2.82-11.75-2.58-7.35.22-11.29 7.83-14.22 5.2-2 9.19-6.54 13.96-9.6 1.94-1.24 4.58-1.58 8.26-2.77 1.24-7.32 8.15-4.56 14.27-3.63 1.9 7.28 2.65 7.95 9.67 8.67 2.19-14.96 2.3-14.89-7.22-13.22zM101.4 120.74l9.09-.83c-7.26-2.03-7.26-2.03-12.89-11.52-.82.88-1.46 1.76-2.28 2.4-1.83 1.4-3.8 2.7-5.68 4.02-1.35-2.53-3-4.97-3.91-7.64-.43-1.22.45-2.9.99-4.32 1.03-2.72 1.59-7.13 3.46-7.7 4.47-1.36 9.54-1.11 13.09 3.2 1.76 2.16 3.96 4.33 6.5 5.52 4.03 1.87 8.48 3.35 11.64-1.83.73-1.2 2.73-1.76 4.15-2.6.54 1.47 1.48 2.91 1.53 4.37.28 6.4-.87 13.33 8.89 15.72-1.25 2.41-2.32 4.5-2.7 5.2-6.9 1.2-12.66 3.24-18.25 2.86-4.86-.33-9.5-3.38-14.25-5.22l.62-1.63zM576.79 302.27l5.68 10.88c-3.23-.76-5.36-1.26-8.6-2-3.25-7.95-3.14-7.75 6.64-12.02 1.78-.77 3.5-4.52 2.94-6.28-.94-2.93-3.86-3.08-6.64-.83-1.7 1.38-3.85 2.3-4.34 2.55-1.48 3.6-2.68 5.92-3.37 8.35-.63 2.27-.73 4.68-1.08 7.1-12.7-.8-16.16-3.59-17.15-13.62 8 3.28 11.86-1.5 15.54-6.58 1.93-2.67 4.1-5.22 5.65-8.07 1.04-1.95 1.12-4.3 1.76-6.46a47.85 47.85 0 012.28-6.34c.15-.32 2.35-.32 2.4-.15.63 1.88.98 3.82 1.54 6.25 6.08 2.03 9.15 8.56 7.43 12.9-1.95 4.97 2.17 15.13-10.68 14.32zM379.62 74.33c-1.67-3.95-3.03-7.17-4.9-11.52l-7.14 16.58C360.77 69.66 355.72 61 356.7 49.8l11.33-1.38C381.56 61 385 67.66 379.62 74.33zM637.3 202.92c-5.38 4.84-7.94 13.01-17.37 13.34-2.28.09-5.3 1.86-1.36 5.17 1.87 1.56-5.01 12.84-7.91 14-5.39 2.16-10.76 4.38-16.16 6.6-2.73-5.2-.5-8.85 7.14-10.78 9.88-2.5 9.69-2.8 10.2-12.65.2-4.13 3.27-8.09 3.92-12.27.83-5.22.4-10.59.71-15.9.12-1.78.85-3.54 1.5-6.1 5.98 7.1 2.9 13.84 2.13 20.43-.2 1.8-.54 4.93.23 5.22 1.85.72 4.73.86 6.45-.02 3.76-1.93 7.05-4.65 10.53-7.04zM472.7 75.58c-1.09 2.48-1.33 4.63-2.62 5.68-2.38 1.95-5.4 3.2-8.08 4.84-8.72 5.32-13.86 13.03-16.16 22.14-.62 2.46 1.54 5.5 2.94 9.98-3.5-1.29-7.07-1.6-8.08-3.23-1.63-2.64-2.64-6.37-1.96-9.25 1.2-5.08 3.1-10.33 6.17-14.63 2.76-3.9 7.1-7.16 11.46-9.66 4.17-2.37 9.26-3.4 16.33-5.87zM435.52 49.43l-14.2-9.5 14.44-4.04 1.95 6.21 7.98-.4c-5.57-5.28-5.57-5.28 5.39-15.15V38.3c4.75-2.52 8.45-4.46 13.26-7-.17 2.33.54 5.36-.62 6.17-3.33 2.36-7.4 3.82-11.63 5.87.19.4.95 2.15 2.3 5.2-4.62-1.34-7.86-2.76-11.22-3.14-2.32-.25-4.8.93-7.22 1.47-.17.86-.3 1.72-.43 2.56zM324.41 197.46c1.44-6.06 2.32-9.7 3.2-13.36l-1.21-.75c-3 3.34-5.97 6.7-9.88 11.05-2.88-6.87-3.18-10.85 2.25-14.34 1.87-1.2 2-4.67 3.57-8.76l6.17-3.14c1.98 4.94 3.98 9.6 5.72 14.36 1.2 3.24 3.9 7.7 2.54 9.62-1.8 2.55-6.86 3.15-12.36 5.32zM525.8 34.42c2.7 6.32 5.71 12.53 7.86 18.99.55 1.63-1.2 5.23-2.76 5.78-1.73.6-4.74-.9-6.72-2.15-2.45-1.53-4.45-3.66-6.54-5.63-.77-.72-1.99-1.98-1.76-2.56 2.02-5.03 4.32-9.95 6.52-14.91 1.16.15 2.29.31 3.4.48zM116.21 87.05l.5-9.21 1.86-.17 11.1 11.84c-5.32 1.74-10.47 4.5-15.76 4.78-3.52.2-8-2.54-10.55-5.2-1.18-1.22.96-5.5 2.27-8.1.26-.54 3.96-.26 5.44.57 1.81 1.03 2.95 3.04 5.14 5.49zM434.88 324.21c.38 1.09 1.14 2.14.96 2.98-1.65 7.04-3.18 14.12-5.5 20.97-.5 1.51-3.99 2.17-6.1 3.22-.92-1.84-2.54-3.65-2.6-5.53-.24-6.88 6-16.87 13.24-21.64zM296.04 151.28c-5.22-.66-9.67-6.67-8.26-11.14.13-.4.37-1.05.65-1.09 5.03-.58 10.08-1.55 15.1-1.36 1.43.05 3.32 3.22 4 5.24 1.02 3.11-7.19 8.9-11.49 8.34zM690.12 378.03c-5.2 6.68-10.21 13.48-15.65 19.97-2.9 3.46-5.93 2.63-8.77-2.2 5.04-4.12 10.34-8.43 16.1-13.1l-1.14-11.64 9.46 6.97zM389.76 45.78c-.88 4.96-2.04 8.32-7.5 8.7-6.23.44-9.32-3.36-11.11-7.6-1.1-2.6-.34-6.35 5.07-4.68 4.28 1.35 8.7 2.33 13.54 3.58zM106.13 70.74l-5.89 16.5c-.64-2.6-.84-3.46-1.07-4.34l-8.95 1.96c2.61-7.6 5.6-12.84 15.91-14.12zM608.86 93.02l-.75-10.54c4.7.6 8.25.71 11.5 1.64 1.52.43 3.75 2.98 3.43 3.7-.71 1.57-2.68 3.1-4.5 3.69-2.68.89-5.68.94-9.68 1.51z" fill="#556A8A"/><path d="M133.25 70.43c-3.85-5.87-9.88-9.74-8-17.49 6.37 3.05 11.12 6.58 12.34 12.57.24 1.27-2.66 3.1-4.34 4.92zM538.64 53.48l6.19 8.3c-3.74 1.96-7.48 3.9-11.22 5.87-.55-.57-1.09-1.16-1.61-1.73 1.5-4 2.97-8.02 4.47-12.03l2.17-.41zM144.13 59.52l4.86 11.3c-5.85 1.66-8.7-2.5-7.22-10.61.8-.22 1.58-.45 2.36-.69zM621.26 383.85h11.13c-2.17 3.11-3.69 5.32-5.2 7.5l-5.93-7.5zM190.03 266.84l-20.09-7.35c4.32-2.67 12.4.15 20.09 7.35zM584.8 310.4c1.45-3.95 2.93-7.9 4.39-11.84 2.2 4.9 4.06 9.64-4.4 11.83z" fill="#556A8A"/><g filter="url(#filter0_d)" fill="#FFE1C5"><circle cx="212.93" cy="72.45" r="7.57"/><circle cx="407.54" cy="176.23" r="7.57"/><circle cx="392.41" cy="161.09" r="7.57"/><circle cx="390.25" cy="195.7" r="7.57"/><circle cx="528.63" cy="238.95" r="7.57"/><circle cx="494.04" cy="232.46" r="7.57"/><circle cx="610.8" cy="141.64" r="7.57"/><circle cx="628.1" cy="96.23" r="7.57"/><circle cx="634.59" cy="120.02" r="7.57"/><circle cx="336.19" cy="258.41" r="7.57"/><circle cx="366.46" cy="282.19" r="7.57"/><circle cx="366.46" cy="238.95" r="7.57"/><circle cx="308.08" cy="280.03" r="7.57"/><circle cx="221.58" cy="297.33" r="7.57"/><circle cx="151.31" cy="183.81" r="23.79"/><circle cx="72.38" cy="169.75" r="16.22"/><circle cx="447.55" cy="181.65" r="23.79"/><circle cx="221.58" cy="329.77" r="7.57"/><circle cx="245.37" cy="312.47" r="7.57"/></g><defs><filter id="filter0_d" x="46.16" y="54.88" width="605.99" height="292.45" filterUnits="userSpaceOnUse" color-interpolation-filters="sRGB"><feFlood flood-opacity="0" result="BackgroundImageFix"/><feColorMatrix in="SourceAlpha" values="0 0 0 0 0 0 0 0 0 0 0 0 0 0 0 0 0 0 127 0"/><feOffset/><feGaussianBlur stdDeviation="5"/><feColorMatrix values="0 0 0 0 0.975 0 0 0 0 0.873438 0 0 0 0 0.934375 0 0 0 0.5 0"/><feBlend in2="BackgroundImageFix" result="effect1_dropShadow"/><feBlend in="SourceGraphic" in2="effect1_dropShadow" result="shape"/></filter></defs></svg>