<svg width="60" height="60" viewBox="0 0 60 60" fill="none" xmlns="http://www.w3.org/2000/svg">
<rect width="60" height="60" rx="10" fill="url(#paint0_linear)"/>
<g clip-path="url(#clip0)">
<path d="M51.6741 38.1702C51.6361 37.3862 51.4036 36.664 51.0191 35.9949C50.1719 34.9842 47.8354 32.4901 44.4637 31.2354C40.1731 29.6381 38.9826 29.7855 37.7812 29.6077C36.5798 29.4299 35.788 28.6957 35.788 28.6957C35.788 28.6957 35.7814 28.4788 36.2225 28.6816C36.6635 28.8844 37.9811 29.059 38.0788 28.7304C38.1766 28.4018 35.2992 28.2251 34.9526 27.5853C34.9526 27.5853 34.8886 27.531 35.5403 27.5104C36.192 27.4898 37.6139 27.7685 37.8268 27.6536C38.0397 27.5386 36.6081 26.9335 35.4034 26.6472C34.1988 26.361 34.8364 25.9066 35.386 26.105C35.9357 26.3035 37.5781 26.6852 38.006 26.4542C38.4329 26.2232 36.8851 25.4056 35.9987 24.8916C35.1123 24.3776 34.4367 23.6402 34.9831 23.7312C35.5294 23.8223 39.9385 25.7407 40.6988 25.7157C41.4592 25.6908 41.6514 24.9252 41.3049 24.2854C40.9584 23.6456 40.2719 22.5829 41.0171 22.1252C41.0171 22.1252 41.8252 23.4558 42.6367 24.4947C42.8039 24.2659 42.9614 24.0186 43.0994 23.7464C44.2943 21.4052 42.6649 21.7565 42.6649 21.7565C42.6649 21.7565 43.7511 18.1281 41.2528 15.4355C41.2528 15.4355 39.9493 14.0311 37.3424 14.0311C36.4201 14.0311 35.662 14.2068 35.0656 14.4345C32.5955 6.24938 22.0591 5.99345 18.9307 9.63709C15.672 13.4325 17.41 19.7222 16.1065 24.2767C14.803 28.8313 8.77442 30.5121 8.33993 38.6452C7.90543 46.7783 14.4228 53.3933 18.8764 51.116C20.2298 50.4241 18.7917 42.9807 18.6591 41.79C18.3333 38.8621 18.7135 36.639 19.3652 30.3494C20.0169 24.0598 23.3843 24.9274 25.0136 25.578C26.643 26.2287 28.3809 26.2287 28.4896 24.9274C28.5982 23.6261 28.2723 22.6501 27.6206 22.3248C26.9688 21.9994 25.9912 23.1923 25.1222 23.5176C24.2532 23.8429 23.9817 22.8127 23.9817 22.7043C23.9817 22.5959 23.9817 22.1621 23.3299 22.0537C22.6782 21.9452 22.7868 21.5114 22.7868 21.5114L23.5472 21.0777C23.0041 21.403 22.3523 21.0777 22.3523 21.0777V20.3186C21.8092 20.427 21.3747 19.8848 21.3747 19.8848C21.3747 19.8848 22.1351 17.9329 21.1575 16.0894C20.1799 14.2459 20.9402 13.1614 20.9402 13.1614C23.3299 16.74 29.1956 15.6556 30.2818 19.2342C31.3681 22.8127 28.7611 25.9576 28.8697 28.3433C28.9208 29.4602 29.8289 30.2204 30.7804 30.7138C26.6745 32.476 22.6978 34.7467 22.5283 38.219C22.449 39.8511 23.1279 41.9223 24.0555 44.0608C27.2491 41.6772 32.6031 37.7115 33.5851 37.1758C35.0026 36.4037 38.5774 33.9746 38.8718 33.0507C38.8718 33.0507 39.5604 33.9302 37.527 35.6772C37.527 35.6772 43.1635 34.4605 43.321 34.7652C43.4796 35.0699 39.2552 36.1738 39.6278 36.4449C40.0004 36.716 44.0781 36.0741 44.4333 36.2378C44.7885 36.4016 44.6418 36.8635 43.0331 37.1173C41.4244 37.371 39.4583 37.46 39.5996 37.6573C39.7408 37.8547 43.8185 37.2127 43.976 37.5174C44.1346 37.8221 40.0232 38.2494 39.5376 38.655C39.0521 39.0606 42.4792 39.1798 42.8126 39.8955C42.8126 39.8955 38.8316 39.7535 37.9735 39.889C37.1153 40.0246 34.7202 40.1818 33.4102 40.9366C32.5445 41.4354 29.2814 45.9054 26.5159 49.1749C27.5869 51.3351 28.4646 53.2241 28.508 54.3736C28.6232 57.4501 27.1285 60.3346 27.1285 60.3346H37.1316V60.2869H47.0772C47.0772 60.2869 45.5825 57.4024 45.6977 54.3259C45.8128 51.2494 51.9044 42.882 51.6741 38.1702Z" fill="white"/>
</g>
<defs>
<linearGradient id="paint0_linear" x1="30" y1="0" x2="30" y2="60" gradientUnits="userSpaceOnUse">
<stop stop-color="#FFCFD2"/>
<stop offset="1" stop-color="#F0ADA9"/>
</linearGradient>
<clipPath id="clip0">
<rect width="43.3613" height="52.9412" fill="white" transform="translate(8.31931 7.05884)"/>
</clipPath>
</defs>
</svg>
