<svg width="60" height="60" viewBox="0 0 60 60" fill="none" xmlns="http://www.w3.org/2000/svg"><rect width="60" height="60" rx="10" fill="url(#paint0_linear)"/><g clip-path="url(#clip0)"><path d="M51.674 38.17a4.783 4.783 0 00-.655-2.175c-.847-1.01-3.184-3.505-6.555-4.76-4.29-1.597-5.481-1.45-6.683-1.627-1.201-.178-1.993-.912-1.993-.912s-.007-.217.434-.014c.441.202 1.76.377 1.857.048.098-.328-2.78-.505-3.126-1.145 0 0-.064-.054.587-.075.652-.02 2.074.258 2.287.144.213-.115-1.219-.72-2.424-1.007-1.204-.286-.567-.74-.017-.542.55.198 2.192.58 2.62.35.427-.232-1.12-1.05-2.007-1.563-.887-.514-1.562-1.252-1.016-1.16.546.09 4.956 2.009 5.716 1.984.76-.025.952-.79.606-1.43-.347-.64-1.033-1.703-.288-2.16 0 0 .808 1.33 1.62 2.369a5.42 5.42 0 00.462-.749c1.195-2.34-.434-1.99-.434-1.99s1.086-3.628-1.412-6.32c0 0-1.304-1.405-3.91-1.405-.923 0-1.681.176-2.277.403-2.47-8.185-13.007-8.44-16.135-4.797-3.259 3.795-1.521 10.085-2.825 14.64-1.303 4.554-7.332 6.235-7.766 14.368-.435 8.133 6.083 14.748 10.536 12.471 1.354-.692-.084-8.135-.217-9.326-.326-2.928.055-5.151.706-11.44.652-6.29 4.02-5.423 5.649-4.772 1.629.65 3.367.65 3.476-.65.108-1.302-.218-2.278-.87-2.603-.651-.326-1.629.867-2.498 1.193-.869.325-1.14-.705-1.14-.814 0-.108 0-.542-.652-.65-.652-.109-.543-.543-.543-.543l.76-.433c-.543.325-1.195 0-1.195 0v-.76c-.543.109-.977-.433-.977-.433s.76-1.952-.218-3.796c-.977-1.843-.217-2.928-.217-2.928 2.39 3.579 8.256 2.495 9.342 6.073 1.086 3.579-1.52 6.724-1.412 9.11.05 1.116.959 1.876 1.91 2.37-4.106 1.762-8.082 4.033-8.252 7.505-.079 1.632.6 3.703 1.527 5.842 3.194-2.384 8.548-6.35 9.53-6.885 1.418-.772 4.992-3.201 5.287-4.125 0 0 .688.88-1.345 2.626 0 0 5.636-1.216 5.794-.912.159.305-4.066 1.409-3.693 1.68.372.271 4.45-.37 4.805-.207.355.164.209.626-1.4.88-1.609.253-3.575.342-3.433.54.14.197 4.218-.445 4.376-.14.159.304-3.953.731-4.438 1.137-.486.406 2.941.525 3.275 1.24 0 0-3.981-.142-4.84-.006-.858.136-3.253.293-4.563 1.048-.865.498-4.129 4.968-6.894 8.238 1.07 2.16 1.949 4.05 1.992 5.199.115 3.076-1.38 5.96-1.38 5.96h10.004v-.047h9.945s-1.494-2.885-1.38-5.961c.116-3.077 6.207-11.444 5.977-16.156z" fill="#fff"/></g><defs><linearGradient id="paint0_linear" x1="30" y1="0" x2="30" y2="60" gradientUnits="userSpaceOnUse"><stop stop-color="#FFCFD2"/><stop offset="1" stop-color="#F0ADA9"/></linearGradient><clipPath id="clip0"><path fill="#fff" transform="translate(8.32 7.059)" d="M0 0h43.361v52.941H0z"/></clipPath></defs></svg>