<svg width="576" height="516" fill="none" xmlns="http://www.w3.org/2000/svg"><path d="M53.11 178.889c1.79-9.996 5.016-29.472 8.82-48.826 2.442-12.381 6.477-24.345 12.232-35.646 14.872-29.185 37.768-49.197 68.667-60.204 21.43-7.62 43.278-11.515 65.967-8.443 5.934.802 11.863 2.484 17.48 4.597 30.983 11.613 60.059 27.399 90.058 41.146 18.297 8.391 37.775 14.302 56.914 20.776 23.616 7.99 47.603 14.928 69.539 27.249 16.365 9.198 31.393 20.114 44.174 33.865a155.922 155.922 0 0114.877 18.735c14.264 21.072 17.02 43.163 5.719 66.677-7.764 16.156-14.84 32.649-18.791 50.264-2.069 9.223-3.624 18.552-5.901 27.717-11.101 44.588-36.86 77.154-79.096 96.255-20.843 9.423-42.588 16.246-64.873 20.78-40.928 8.315-82.228 14.858-124.029 16.227-52.036 1.706-101.01-9.694-145.3-38.074-14.741-9.45-26.995-21.575-36.746-36.179-13.568-20.32-17.26-42.415-11.013-65.927 3.634-13.674 8.185-27.114 12.447-40.629 8.33-26.423 14.1-53.382 18.855-90.36zm420.115 213.337c3.627-13.372 9.697-22.692 19.959-28.876a29.12 29.12 0 018.338-3.378c6.343-1.482 11.68 1.248 14.047 7.308 1.155 2.969 1.963 6.348 1.826 9.501-.664 16.127-8.856 27.882-22.536 35.72-9.578 5.487-18.669 1.145-20.929-9.631-.847-4.048-.581-8.345-.705-10.644zm46.14-76.546c-1.525 6.953-8.338 12.124-14.182 10.762-4.847-1.125-7.105-6.653-5.535-13.555 1.341-5.945 6.14-9.72 11.032-8.681 6.753 1.428 9.959 5.653 8.685 11.474z" fill="#F7ECED"/></svg>