<svg width="823" height="850" viewBox="0 0 823 850" fill="none" xmlns="http://www.w3.org/2000/svg">
<path d="M693.06 362.772C720.284 396.954 738.334 434.99 741.594 479.149C743.359 503.09 739.01 526.234 731.374 548.75C714.306 599.063 684.113 640.137 641.224 671.225C597.662 702.812 548.08 713.308 494.895 709.876C464.644 707.929 435.461 701.713 409.07 686.809C391.251 676.743 374.235 664.824 358.277 651.99C342.366 639.201 334.132 620.876 329.252 601.211C326.327 589.413 323.144 577.649 320.858 565.715C315.018 535.36 295.865 519.236 266.59 513.023C245.255 508.497 223.821 504.195 202.833 498.352C114.421 473.732 70.6083 381.595 87.325 306.628C96.1176 267.18 117.093 234.599 146.401 207.091C182.987 172.744 227.521 161.221 276.175 161.894C306.096 162.31 335.755 165.748 362.514 180.196C378.654 188.908 393.465 200.077 408.804 210.236C422.511 219.317 435.993 228.758 449.842 237.636C466.972 248.604 486.531 252.377 506.167 255.754C533.24 260.405 559.734 267.238 585.031 277.994C627.212 295.923 661.638 324.052 690.461 359.378C691.355 360.479 692.194 361.635 693.06 362.772Z" fill="#D1E7E5"/>
<path d="M273.841 554.817C285.083 569.541 285.987 585.35 277.762 596.92C269.179 608.992 252.389 613.411 237.471 609.653C226.014 606.77 217.08 601.209 210.325 592.004C194.947 571.034 205.583 544.303 231.184 539.896C249.128 536.799 263.753 543.398 273.841 554.817Z" fill="#D1E7E5"/>
</svg>
