<svg width="695" height="665" fill="none" xmlns="http://www.w3.org/2000/svg"><path d="M561.454 492.144c-5.2 9.648-15.063 28.534-25.479 47.1-6.671 11.874-14.835 22.785-24.541 32.437-25.074 24.922-55.288 37.736-90.679 38.624-24.54.6-48.255-2.76-70.488-13.547-5.815-2.819-11.328-6.54-16.378-10.598-27.863-22.336-52.366-48.311-78.501-72.506-15.938-14.763-33.922-27.381-51.37-40.462-21.527-16.141-43.789-31.33-62.137-51.348-13.686-14.941-25.422-31.193-33.9-49.595a168.408 168.408 0 01-8.95-24.22c-7.534-26.41-2.925-49.991 16.579-70.3 13.399-13.954 26.207-28.485 36.188-45.219 5.226-8.76 9.96-17.804 15.38-26.435 26.392-41.987 63.768-66.712 113.509-72.083 24.545-2.647 49.14-2.324 73.518.528 44.769 5.249 89.322 12.44 132.648 25.106 53.935 15.766 100.319 43.94 136.183 87.95 11.936 14.653 20.421 31.211 25.505 49.469 7.073 25.404 3.422 49.304-10.897 71.312-8.33 12.798-17.52 25.049-26.44 37.473-17.436 24.292-32.427 49.995-49.75 86.314zM202.453 131.969c-8.22 12.492-17.582 20.006-30.186 22.894-3.12.718-6.491.94-9.688.657-7.003-.616-11.557-5.211-11.945-12.223-.185-3.433.124-7.169 1.326-10.357 6.109-16.314 18.466-25.611 35.132-29.044 11.669-2.402 19.53 5.11 18.221 16.921-.494 4.436-2.214 8.752-2.86 11.152zm-73.08 62.964c3.905-6.617 12.631-9.626 18.166-6.263 4.591 2.786 5.046 9.214 1.114 15.764-3.377 5.645-9.568 7.9-14.236 5.189-6.444-3.738-8.309-9.149-5.044-14.69z" fill="#EFE9F1"/></svg>