<svg width="855" height="796" viewBox="0 0 855 796" fill="none" xmlns="http://www.w3.org/2000/svg">
<path d="M755.852 308.67C761.448 321.468 772.651 346.2 783.098 371.236C789.773 387.258 794.308 404.022 796.369 421.342C801.68 466.079 790.804 506.464 763.893 542.673C745.218 567.769 723.218 588.927 694.929 602.763C687.532 606.383 679.468 608.992 671.429 610.871C627.128 621.284 581.817 625.467 537.009 632.685C509.674 637.081 482.886 645.215 456.055 652.448C422.947 661.369 390.218 671.776 355.718 674.462C329.975 676.458 304.449 675.468 279.323 669.519C268.671 666.994 258.13 663.605 247.99 659.474C215.571 646.289 195.529 623.139 190.472 587.615C186.995 563.208 182.476 538.942 173.525 515.782C168.839 503.656 163.483 491.801 159.08 479.582C137.68 420.117 142.231 363.191 175.915 309.06C192.541 282.352 212.185 257.925 234.196 235.703C274.631 194.905 316.846 155.847 363.589 122.322C421.777 80.5869 486.485 56.1754 558.818 54.7588C582.898 54.2925 606.178 58.7862 628.492 68.027C659.54 80.8854 680.654 103.323 691.489 134.98C697.788 153.392 702.862 172.237 708.321 190.948C719 227.525 733.016 262.758 755.852 308.67Z" fill="#F7ECED"/>
<path d="M112.429 385.973C118.507 404.034 118.693 419.331 111.689 434.247C109.959 437.943 107.534 441.499 104.739 444.484C98.6194 451.027 90.4306 451.988 83.0908 446.869C79.5002 444.357 75.9939 441.112 73.7398 437.403C62.1683 418.457 62.5461 398.754 72.1935 379.335C78.9495 365.738 92.662 363.752 103.486 374.343C107.549 378.324 110.529 383.44 112.429 385.973Z" fill="#F7ECED"/>
<path d="M118.203 508.765C114.631 499.65 118.466 488.529 126.189 485.618C132.59 483.198 139.398 487.792 142.882 496.883C145.893 504.705 143.293 512.69 136.905 515.243C128.093 518.774 121.197 516.394 118.203 508.765Z" fill="#F7ECED"/>
</svg>
