<svg width="576" height="516" viewBox="0 0 576 516" fill="none" xmlns="http://www.w3.org/2000/svg">
<path d="M53.1103 178.889C54.9008 168.893 58.1255 149.417 61.9308 130.063C64.3722 117.682 68.4067 105.718 74.1618 94.4165C89.0339 65.2318 111.93 45.2203 142.829 34.2127C164.259 26.5935 186.107 22.6983 208.796 25.7697C214.73 26.5716 220.659 28.2539 226.276 30.3671C257.259 41.9795 286.335 57.7655 316.334 71.5133C334.631 79.9043 354.109 85.8153 373.248 92.2891C396.864 100.279 420.851 107.217 442.787 119.538C459.152 128.736 474.18 139.652 486.961 153.403C492.378 159.234 497.379 165.543 501.838 172.138C516.102 193.21 518.858 215.301 507.557 238.815C499.793 254.971 492.717 271.464 488.766 289.079C486.697 298.302 485.142 307.631 482.865 316.796C471.764 361.384 446.005 393.95 403.769 413.051C382.926 422.474 361.181 429.297 338.896 433.831C297.968 442.146 256.668 448.689 214.867 450.058C162.831 451.764 113.857 440.364 69.5675 411.984C54.8255 402.534 42.5719 390.409 32.8208 375.805C19.2532 355.485 15.5612 333.39 21.8075 309.878C25.4424 296.204 29.9927 282.764 34.2555 269.249C42.5851 242.826 48.355 215.867 53.1103 178.889Z" fill="#F7ECED"/>
<path d="M473.225 392.226C476.852 378.854 482.922 369.534 493.184 363.35C495.723 361.815 498.626 360.646 501.522 359.972C507.865 358.49 513.202 361.22 515.569 367.28C516.724 370.249 517.532 373.628 517.395 376.781C516.731 392.908 508.539 404.663 494.859 412.501C485.281 417.988 476.19 413.646 473.93 402.87C473.083 398.822 473.349 394.525 473.225 392.226Z" fill="#F7ECED"/>
<path d="M519.365 315.68C517.84 322.633 511.027 327.804 505.183 326.442C500.336 325.317 498.078 319.789 499.648 312.887C500.989 306.942 505.788 303.167 510.68 304.206C517.433 305.634 520.639 309.859 519.365 315.68Z" fill="#F7ECED"/>
</svg>
