<svg width="823" height="850" viewBox="0 0 823 850" fill="none" xmlns="http://www.w3.org/2000/svg"><path d="M693.06 362.772c27.224 34.182 45.274 72.218 48.534 116.377 1.765 23.941-2.584 47.085-10.22 69.601-17.068 50.313-47.261 91.387-90.15 122.475-43.562 31.587-93.144 42.083-146.329 38.651-30.251-1.947-59.434-8.163-85.825-23.067-17.819-10.066-34.835-21.985-50.793-34.819-15.911-12.789-24.145-31.114-29.025-50.779-2.925-11.798-6.108-23.562-8.394-35.496-5.84-30.355-24.993-46.479-54.268-52.692-21.335-4.526-42.769-8.828-63.757-14.671-88.412-24.62-132.225-116.757-115.508-191.724 8.793-39.448 29.768-72.029 59.076-99.537 36.586-34.347 81.12-45.87 129.774-45.197 29.921.416 59.58 3.854 86.339 18.302 16.14 8.712 30.951 19.881 46.29 30.04 13.707 9.081 27.189 18.522 41.038 27.4 17.13 10.968 36.689 14.741 56.325 18.118 27.073 4.651 53.567 11.484 78.864 22.24 42.181 17.929 76.607 46.058 105.43 81.384.894 1.101 1.733 2.257 2.599 3.394z" fill="#D1E7E5"/><path d="M273.841 554.817c11.242 14.724 12.146 30.533 3.921 42.103-8.583 12.072-25.373 16.491-40.291 12.733-11.457-2.883-20.391-8.444-27.146-17.649-15.378-20.97-4.742-47.701 20.859-52.108 17.944-3.097 32.569 3.502 42.657 14.921z" fill="#D1E7E5"/></svg>