
<svg version="1.1" xmlns="http://www.w3.org/2000/svg" x="0" y="0" viewBox="0 0 136.1 112.6" xml:space="preserve"><style>.st0{fill:#f7ebe7}</style><path class="st0" d="M77.9 9.1c5.1 3.7 8.8 8.6 12 13.9 3.3 5.7 7.1 11 11.4 16 4.1 4.3 8.7 8.1 13.7 11.3a40 40 0 0111.1 10.2c7.3 10.3 9.5 21.6 5.8 33.8-1.7 5.9-5.6 11-10.8 14.3-6.7 4.5-15.3 5.1-22.5 1.6-3.3-1.5-6.5-3.1-9.8-4.6-6.5-3-13.4-3.7-20.6-3.2-6.3.6-12.6.8-18.9.4-12.1-.8-23.8-4.8-34-11.5-6-3.9-10.5-9.7-12.8-16.5-2.1-6-.5-11.2 3.9-15.5 1.8-1.6 3.7-3 5.7-4.3 1-.7 2.1-1.3 3.1-1.9 2.6-1.7 4.5-4.4 5.1-7.5.8-3.6.7-7.3-.1-10.9-.7-3.1-1.1-6.2-1.4-9.4a10 10 0 013.5-8.6c1.8-1.7 3.3-3.8 5.1-5.4C31.9 7.2 37 3.6 43 2c2.5-.7 5.1-1.1 7.7-1.2C60.4.3 70 3.2 77.9 9.1zM109.8 20.9c.8.8 1.5 1.6 2.2 2.5 1.6 2.5 2.7 5.3 3.1 8.2.5 1.8-.2 3.8-1.7 4.9-1.9 1.3-3.8 1.8-5.9.6-3.6-2.1-6.3-5.3-7.8-9.1-1.2-3.5.6-7.3 4-8.6 1.8-.8 3.3.2 4.8.9.4.2.8.5 1.2.8l.1-.2z"/></svg>