<svg width="855" height="796" fill="none" xmlns="http://www.w3.org/2000/svg"><path d="M755.852 308.67c5.596 12.798 16.799 37.53 27.246 62.566 6.675 16.022 11.21 32.786 13.271 50.106 5.311 44.737-5.565 85.122-32.476 121.331-18.675 25.096-40.675 46.254-68.964 60.09-7.397 3.62-15.461 6.229-23.5 8.108-44.301 10.413-89.612 14.596-134.42 21.814-27.335 4.396-54.123 12.53-80.954 19.763-33.108 8.921-65.837 19.328-100.337 22.014-25.743 1.996-51.269 1.006-76.395-4.943a214.411 214.411 0 01-31.333-10.045c-32.419-13.185-52.461-36.335-57.518-71.859-3.477-24.407-7.996-48.673-16.947-71.833-4.686-12.126-10.042-23.981-14.445-36.2-21.4-59.465-16.849-116.391 16.835-170.522 16.626-26.708 36.27-51.135 58.281-73.357 40.435-40.798 82.65-79.856 129.393-113.381 58.188-41.735 122.896-66.147 195.229-67.563 24.08-.467 47.36 4.027 69.674 13.268 31.048 12.858 52.162 35.296 62.997 66.953 6.299 18.412 11.373 37.257 16.832 55.968 10.679 36.577 24.695 71.81 47.531 117.722zm-643.423 77.303c6.078 18.061 6.264 33.358-.74 48.274-1.73 3.696-4.155 7.252-6.95 10.237-6.12 6.543-14.308 7.504-21.648 2.385-3.59-2.512-7.097-5.757-9.351-9.466-11.572-18.946-11.194-38.649-1.546-58.068 6.755-13.597 20.468-15.583 31.292-4.992 4.063 3.981 7.043 9.097 8.943 11.63zm5.774 122.792c-3.572-9.115.263-20.236 7.986-23.147 6.401-2.42 13.209 2.174 16.693 11.265 3.011 7.822.411 15.807-5.977 18.36-8.812 3.531-15.708 1.151-18.702-6.478z" fill="#F7ECED"/></svg>