<svg width="695" height="665" viewBox="0 0 695 665" fill="none" xmlns="http://www.w3.org/2000/svg">
<path d="M561.454 492.144C556.254 501.792 546.391 520.678 535.975 539.244C529.304 551.118 521.14 562.029 511.434 571.681C486.36 596.603 456.146 609.417 420.755 610.305C396.215 610.905 372.5 607.545 350.267 596.758C344.452 593.939 338.939 590.218 333.889 586.16C306.026 563.824 281.523 537.849 255.388 513.654C239.45 498.891 221.466 486.273 204.018 473.192C182.491 457.051 160.229 441.862 141.881 421.844C128.195 406.903 116.459 390.651 107.981 372.249C104.389 364.445 101.384 356.292 99.0313 348.029C91.4968 321.619 96.1064 298.038 115.61 277.729C129.009 263.775 141.817 249.244 151.798 232.51C157.024 223.75 161.758 214.706 167.178 206.075C193.57 164.088 230.946 139.363 280.687 133.992C305.232 131.345 329.827 131.668 354.205 134.52C398.974 139.769 443.527 146.96 486.853 159.626C540.788 175.392 587.172 203.566 623.036 247.576C634.972 262.229 643.457 278.787 648.541 297.045C655.614 322.449 651.963 346.349 637.644 368.357C629.314 381.155 620.124 393.406 611.204 405.83C593.768 430.122 578.777 455.825 561.454 492.144Z" fill="#EFE9F1"/>
<path d="M202.453 131.969C194.233 144.461 184.871 151.975 172.267 154.863C169.147 155.581 165.776 155.803 162.579 155.52C155.576 154.904 151.022 150.309 150.634 143.297C150.449 139.864 150.758 136.128 151.96 132.94C158.069 116.626 170.426 107.329 187.092 103.896C198.761 101.494 206.622 109.006 205.313 120.817C204.819 125.253 203.099 129.569 202.453 131.969Z" fill="#EFE9F1"/>
<path d="M129.373 194.933C133.278 188.316 142.004 185.307 147.539 188.67C152.13 191.456 152.585 197.884 148.653 204.434C145.276 210.079 139.085 212.334 134.417 209.623C127.973 205.885 126.108 200.474 129.373 194.933Z" fill="#EFE9F1"/>
</svg>
